<?xml version="1.0" encoding="utf-8"?>
<!-- Generator: Adobe Illustrator 23.0.1, SVG Export Plug-In . SVG Version: 6.00 Build 0)  -->
<svg version="1.1" id="Layer_1" xmlns="http://www.w3.org/2000/svg" xmlns:xlink="http://www.w3.org/1999/xlink" x="0px" y="0px"
	 viewBox="0 0 2847.7 746.3" style="enable-background:new 0 0 2847.7 746.3;" xml:space="preserve">
<style type="text/css">
	.st0{display:none;fill:#AA96DA;}
	.st1{display:none;}
	.st2{display:inline;fill:#FFFFFF;}
	.st3{opacity:0.5;}
	.st4{fill:#FFFFFF;}
</style>
<rect x="-33.5" y="10.5" class="st0" width="3042.9" height="533.4"/>
<g class="st1">
	
		<ellipse transform="matrix(0.7071 -0.7071 0.7071 0.7071 24.6633 552.8926)" class="st2" cx="679.7" cy="246.7" rx="15.5" ry="15.5"/>
	<circle class="st2" cx="319.5" cy="154.7" r="7.8"/>
	<circle class="st2" cx="116.7" cy="131.4" r="6.7"/>
	<path class="st2" d="M98.4,349.6c-0.5,5.2-1,8.7-1.6,12c-0.7,4.6-1.4,9-1.9,17.4c-0.8,13.8-0.2,24.5,0.3,34.7
		c0.6,10.9,1.1,21.3-0.2,34.1c7.8-22.5,16.2-60.5,13.5-93.7c-2.3-27.8-6.6-46.8-6.6-46.8c-2.9-12.8-5.2-18.4-7.9-34.6
		c-1.2-7-1.6-10.9-2.5-10.9c-0.4,0-0.9,0.9-1.4,2.5C98.2,294.1,101,322.7,98.4,349.6z"/>
	<circle class="st2" cx="362.7" cy="322" r="11.1"/>
	
		<ellipse transform="matrix(0.7071 -0.7071 0.7071 0.7071 -26.6646 632.9193)" class="st2" cx="750.7" cy="348.6" rx="4.4" ry="4.4"/>
	<circle class="st2" cx="1260.5" cy="115.9" r="11.1"/>
	<circle class="st2" cx="1417.9" cy="71.5" r="6.7"/>
	
		<ellipse transform="matrix(0.3827 -0.9239 0.9239 0.3827 386.2411 945.0451)" class="st2" cx="900.3" cy="183.5" rx="5.5" ry="5.5"/>
	
		<ellipse transform="matrix(0.3827 -0.9239 0.9239 0.3827 282.7223 629.6646)" class="st2" cx="612.5" cy="103.3" rx="6.7" ry="6.7"/>
	<path class="st2" d="M1455.6,231.2c3.7,0,6.7-3,6.7-6.7s-3-6.7-6.7-6.7s-6.7,3-6.7,6.7S1451.9,231.2,1455.6,231.2z"/>
	<path class="st2" d="M3134.9,488.3c0.3-2.2,0.4-4.5,0.4-6.9c0-6.2-1.4-12.5-5.9-16.6c-1.6-1.4-3.3-2.4-5.3-3.1
		c-2.1-0.8-4.3-1.2-6.6-1.3c0,0,0,0,0,0c-0.7,0-1.4-0.1-2.1,0c0.1-0.1,0.1-0.3,0.2-0.4c2.7-5.6,3.5-9.6,3.6-15.3
		c0-1.8,0.1-5.6-0.4-10.1c-0.3-2.9-0.8-6.1-1.8-9.1l0,0c-1.7-5.5-4.5-10.7-9.4-13.3c-7.4-4-16.7-0.8-23.5,2.8
		c-4.5,2.4-7.8,5-8.9,5.8c-1.5,1.1-2.8,2.3-3.9,3.4l0,0c-0.2,0.2-0.4,0.4-0.6,0.6c0,0,0,0,0,0c-0.2-0.2-0.3-0.4-0.5-0.6
		c-1.9-2.3-4.2-4.1-7-5.1c-7.6-2.7-15.9,1.5-21.9,5.9v0c-5.4-6.4-14-14.4-23.2-13.2c-6.2,0.9-10.9,5.8-14.2,11.2
		c-1.9-2.8-4-5-6.8-7.4c-1.6-1.4-5.5-4.7-10.4-7.6c0.1-0.6,0.1-1.2,0.2-1.8c1.1-8.5,3-16.9,5.9-25.1c1.5-1.6,4.6-5.6,10.9-9.6
		c10.8-6.8,16.5-4.2,26.5-10.3c6.6-4,10.3-8.9,14.1-13.9c9.7-12.8,14.6-28.7,14.6-28.8c-15.7,11.6-20.1,14.1-20.1,14.1
		c-8.6,4.8-12,4.6-17.9,7.4c-20.6,9.8-30.1,36-29.6,40.9c-2.8,8.1-4.8,16.5-5.8,25c0,0.4-0.1,0.8-0.1,1.2c-2.2-1.2-4.6-2.4-7.1-3.2
		c-1.4-0.4-2.8-0.8-4.1-1c-1-7.4-1.5-13-1.6-18.3c-0.1-14.3,2.7-29,8.5-43.7c2.5-1.5,5.9-3.6,10-6c3.8-2.2,6-3.4,7.5-4.3
		c1.2-0.7,10.6-6.1,17.5-12.8c6.2-6.1,8.9-11.9,14.1-23.1c2.5-5.3,5.6-12.8,8.3-22.2c0,0-0.1,0-0.2,0c-6.8,1.2-11.5,3.8-13.3,4.7
		c-9.3,4.9-11,4.1-18,8.2c-3.8,2.3-11.8,7.1-18.1,16.3c0,0-8,11.7-8.8,37.3c-6.2,15.3-9.2,30.6-9.1,45.5c0.1,5.3,0.6,10.8,1.5,18.1
		c-2.7-0.2-5.3,0.1-7.8,1.2c-2.9,1.3-5.1,3.4-6.8,6c0,0,0-0.1-0.1-0.1c-0.8-1.4-1.7-2.6-2.5-3.7c-2.2-3-4.2-5.1-6.3-7c0,0,0,0,0,0
		c-1.8-1.6-3.6-3.1-5.5-4.7c-0.5-0.4-0.9-0.8-1.4-1.2c-0.3-0.3-0.6-0.5-0.8-0.8c-2.8-2.6-5.8-5.7-9.3-10.6
		c-9.5-13.1-10.2-21.7-12.2-21.3c-1.5,0.3-2.9,5.6-3,13c-0.1,8.2,1.4,19,6.2,28.5c1.9,0.1,3.8,0.3,5.6,0.7c0.6,0.1,1.2,0.3,1.9,0.4
		c0.4,0.1,0.7,0.2,1.1,0.3c0.6,0.2,1.2,0.4,1.8,0.6c0.3,0.1,0.7,0.2,1,0.3c0.3,0.1,0.7,0.2,1,0.4l0.9,0.3c0.5,0.2,1,0.5,1.6,0.7
		c0.3,0.1,0.6,0.3,0.9,0.4c0.1,0,0.1,0.1,0.2,0.1c0.3,0.2,0.6,0.3,0.9,0.5c0.3,0.2,0.7,0.4,1,0.5c0.2,0.1,0.4,0.2,0.5,0.3
		c0.2,0.1,0.5,0.3,0.7,0.4c1.6,1,3.2,2.1,4.7,3.3c0.3,0.2,0.5,0.4,0.7,0.6c0.3,0.2,0.6,0.4,0.8,0.7c0.6,0.5,1.2,1,1.8,1.5
		c0.3,0.3,0.6,0.5,0.9,0.8c1.1,1.1,2.2,2.2,3.3,3.3c-2.2,7.4-2.3,15.1-2.3,16.9c0,4.4,0.5,8.1,1.6,11.4c-1.6,0.6-3,1.4-4.4,2.6
		c-4.5,3.8-5.9,10-6,16.1c-0.1,0-0.1,0-0.2,0c-5-0.4-25.8-1.9-32.3,9.8c-0.6,1-1,2.1-1.3,3.1h-5.2c-0.8-12-2-26.5-5.8-45.7
		c-3.2-16.4-7.9-34.3-11-42.2c-3.1,30-1.4,58,5.1,83.5c0.4,1.6,0.8,3.1,1.2,4.4h-1c-0.4-1.3-0.7-2.6-1.1-4.2
		c-6.7-26.1-8.4-54.9-5-85.6c-0.7-1.5-1.3-2.3-1.7-2.2c-0.9,0.2-0.7,4.1-0.8,11.2c-0.2,16.4-1.7,22.3-2.5,35.4
		c0,0-1.1,15.6,0.2,38.7c-0.1-0.4-0.1-0.7-0.2-1.1c-3.2-16.4-7.9-34.3-11-42.2c-1.8,17.4-2,34.1-0.5,50.1h-1
		c-1.5-16.5-1.3-33.9,0.7-52c-0.7-1.5-1.3-2.3-1.7-2.2c-0.9,0.2-0.7,4.1-0.8,11.2c-0.2,16.4-1.7,22.3-2.5,35.4c0,0-0.2,2.7-0.3,7.7
		h-119c-1.1-0.9-2.2-1.6-3.5-2.1c0.9-3.2,1.4-6.7,1.3-11c0-3.2-0.4-24.8-11.9-30.3c-3.8-1.8-8.1-1.5-12.2-0.1
		c-7.7,2.7-14.8,8.9-17,11c-2.6,2.3-4.4,4.3-6.1,7c-3.1-5.2-7.4-10-13-10.9c-8.3-1.3-16.1,6.4-21,12.5v0c-2.1-1.6-4.4-3.2-6.9-4.4
		c0.9-3,1.2-5.8,1.2-9.3c0-1.8,0.1-5.6-0.4-10.1c-0.3-2.9-0.8-6.1-1.8-9.1l0,0c-1.7-5.5-4.5-10.7-9.4-13.3c-7.4-4-16.7-0.8-23.5,2.8
		c-4.5,2.4-7.8,5-8.9,5.8c-1.5,1.1-2.8,2.3-3.9,3.4l0,0c-0.2,0.2-0.4,0.4-0.6,0.6c0,0,0,0,0,0c-0.2-0.2-0.3-0.4-0.5-0.6
		c-1.9-2.3-4.2-4.1-7-5.1c-7.6-2.7-15.9,1.5-21.9,5.9v0c-2.1-2.6-4.8-5.4-7.8-7.7c9.7-41.7,17-95.2,12.4-143.3
		c-1.6-16.5-3.5-31.5-5.4-44.1c-0.9-6.1-1.8-11.7-2.7-16.7c-3-17.7-5.4-28-5.4-28c-5.7-24.2-10.1-34.8-15.6-65.5
		c-2.4-13.3-3.2-20.7-4.9-20.7c-2.5,0-5.2,16.8-7.2,39.3c3.7,18.6,8.6,43.4,12.7,67c4,22.8,7.2,44.5,8.1,58.2c0,0.3,0,0.6,0.1,0.9
		c2.4,39.7,1.4,91.3-0.4,110.9c-0.5,6-2.7,20.1-5.4,36.4c-0.3,0-0.7,0-1,0.1c2.7-16.4,4.9-30.6,5.4-36.6
		c1.8-19.4,2.8-70.2,0.5-109.8c0-0.3,0-0.6-0.1-1c-0.8-13.7-4.2-36.1-8.3-59.6c-3.8-22-8.3-45.1-11.9-63.1
		c-1.2,14.9-2.1,32-2.5,48.2c-0.4,20.5,0.1,38.1,1,53.5c1.2,20.7,3.2,37.6,4.6,52.6c0.2,2.2,0.4,4.3,0.6,6.4
		c3.8,45.5,3.2,83.6,1.5,113.4c-2.2,2-4.1,4.4-5.7,7c-1.9-2.8-4-5-6.8-7.4c-0.2-0.2-0.5-0.4-0.8-0.7c-4.1-16.6-8.8-39.5-11-68.1
		c-1-13.8-1.6-30.7-6.5-55.6c-3.2-16.4-7.9-34.3-11-42.2c-3.1,30-1.4,58,5.1,83.5c1.3,5.1,2.4,8.4,3.4,11.6
		c1.4,4.5,2.8,8.7,4.5,16.9c2.9,13.6,4,24.2,5,34.5c0.4,4.4,0.9,8.6,1.5,13c-0.4-0.2-0.7-0.4-1.1-0.7c-0.5-4.1-0.9-8.1-1.4-12.2
		c-1-10.2-2.1-20.8-5-34.3c-1.8-8.2-3.1-12.4-4.5-16.9c-1-3.2-2.1-6.6-3.4-11.6c-6.7-26.1-8.4-54.9-5-85.6c-0.7-1.5-1.3-2.3-1.7-2.2
		c-0.9,0.2-0.7,4.1-0.8,11.2c-0.2,16.4-1.7,22.3-2.5,35.4c0,0-1.3,19.5,0.7,47.3c1.6,22.4,8.6,46.1,16.3,65.6
		c-0.3-0.1-0.5-0.2-0.8-0.3c-4.5-1.5-9.2-1.9-13.4,0c-12.5,5.6-12.8,27.9-12.8,31.3c0,4.4,0.5,8.1,1.6,11.4c-1.6,0.6-3,1.4-4.4,2.6
		c-4.5,3.8-5.9,10-6,16.1c-0.1,0-0.1,0-0.2,0c-5-0.4-25.8-1.9-32.3,9.8c-1.2,2.2-1.8,4.5-1.9,7h-6.4c-17.1-8.2-32.9-13.2-50.4-14.9
		c-29.2-2.8-55.4,4.4-74.5,12.1c-31.7-19.3-55.4-30.5-83.4-33.2c-48.4-4.6-88.5,18-102,25.7c-6,3.4-11.2,6.8-16,10.2h-4.9
		c0-0.5-0.1-1-0.1-1.6c-0.3-2.9-0.8-6.1-1.8-9.1l0,0c-1.7-5.5-4.5-10.7-9.4-13.3c-7.4-4-16.7-0.8-23.5,2.8c-1.5,0.8-2.9,1.6-4.1,2.4
		c-0.2-2.5-0.4-5.1-0.7-7.7c-0.9-9-2.2-18.4-3.6-26.5c-1.1,11.3-2.5,25.8-3.5,40.1c-0.3,0.3-0.6,0.6-0.9,0.8l0,0
		c-0.1,0.1-0.1,0.1-0.2,0.2c1.2-16.3,2.8-32.9,4-44.8c-1.9-10.2-3.8-17.4-5-17.3c-0.9,0.1-1,4-1.8,11.1c-1.7,16.3-3.7,22.1-5.8,35
		c0,0-0.6,3.7-1.3,10.2c-1-0.2-2-0.3-3.1-0.3c-9.2-33.1-22.3-76.1-31-88.7c-0.1,13.8,1.2,27.3,3.8,40.2c1.9,9.3,3.8,15.2,6.4,23.4
		c2.3,7,5,15.4,8.6,28.6c-0.3,0.2-0.6,0.3-0.9,0.5c-3.7-13.4-6.4-21.8-8.7-28.8c-2.7-8.2-4.6-14.2-6.5-23.5
		c-2.7-13.4-4-27.4-3.8-41.8c-1.3-1.6-2.5-2.4-3.6-2.3c-6.9,1.1-4.4,43,3.6,87c-2.6-1.1-5.4-1.6-8.3-1.2
		c-6.2,0.9-10.9,5.8-14.2,11.2c-1.9-2.8-4-5-6.8-7.4c-2.5-2.1-10.3-8.7-18.8-11.5c-4.5-1.5-9.2-1.9-13.4,0
		c-11.7,5.2-12.7,25-12.8,30.4c-6.7-3.8-13.2-7.2-19.4-10.1c5.2-1.7,9.2-4.3,13.3-7c13.5-8.7,23.5-21.9,23.6-22
		c-18.7,5.5-23.7,6.3-23.7,6.3c-9.8,1.6-12.8,0.2-19.4,0.8c-9.8,0.9-18.6,5.4-25.7,10.5c-5.4-1.2-11-2.1-16.6-2.7
		c-3.4-0.3-6.7-0.5-10-0.6c4-7,8.9-13.7,14.6-20.1c2.8-0.6,6.8-1.4,11.5-2.2c4.4-0.8,6.8-1.1,8.5-1.4c1.4-0.2,12-2.1,20.8-6
		c7.9-3.6,12.4-8.1,21.2-16.9c4.2-4.2,9.7-10.1,15.4-17.9c0,0-0.1,0-0.2,0c-6.8-1.2-12.1-0.4-14.1-0.1c-10.4,1.4-11.8,0-19.7,1.5
		c-4.4,0.8-13.5,2.6-22.6,9.1c0,0-11.5,8.2-21.1,32c-6.3,7-11.7,14.4-16.1,22.1c-15.4-0.2-29.8,2.2-42.4,5.7
		c-0.4-1.3-0.9-2.7-1.3-4.2c-4.4-15.6-2.1-23.9-4.2-24.2c-1.6-0.2-4.7,4.3-7.3,11.2c-2.3,6.2-4.3,14.4-4.3,22.8
		c-11.7,4.5-21,9.4-27.2,12.8c0-2-0.1-5-0.4-8.2c-0.3-2.9-0.8-6.1-1.8-9.1l0,0c-1.7-5.5-4.5-10.7-9.4-13.3c-7.4-4-16.7-0.8-23.5,2.8
		c-4.5,2.4-7.8,5-8.9,5.8c-1.5,1.1-2.8,2.3-3.9,3.4l0,0c-0.2,0.2-0.4,0.4-0.6,0.6c0,0,0,0,0,0c-0.2-0.2-0.3-0.4-0.5-0.6
		c-1.9-2.3-4.2-4.1-7-5.1c-7.6-2.7-15.9,1.5-21.9,5.9c0,0,0,0,0,0h0c-5.4-6.4-14-14.4-23.2-13.2c-6.2,0.9-10.9,5.8-14.2,11.2
		c-0.4-0.6-0.8-1.1-1.2-1.6c1.5-13.2,0.9-23.9,0.4-35.2c-0.5-10.3-1.1-20.9-0.3-34.8c0.5-8.4,1.2-12.8,1.9-17.4
		c0.5-3.3,1.1-6.8,1.6-12c2.5-26.2,0-54.2-7.7-83.3c-1.9,8.3-3.7,26.7-4.4,43.4c-1,25.3,1,42.1,2.1,55.9c2.1,26.7,1.3,48.7-0.1,65.4
		c-6.3-24.7-16.6-67.2-18.7-125.4c-0.8-20.6-0.6-45.8-6.7-83c-5.4-33.1-14.9-70.1-18.5-69.7c-1.3,0.2-1.4,4.8-1.8,13.2
		c6.2,29.4,10.2,58.8,12,87.7c1.5,24.9,0.8,42.1,0.3,55.9c-0.8,20.5-1.3,35.4,5.5,60.9c6.5,24.3,18,52.7,25.4,69.9
		c-0.5-0.4-1-0.8-1.6-1.2c-7.4-17.3-18.5-44.8-24.8-68.4c-6.8-25.7-6.3-40.5-5.5-61.1c0.5-13.8,1.1-30.9-0.3-55.8
		c-1.6-27.6-5.4-55.7-11.2-83.9c-1.4,24-4.1,32.8-6.4,52c0,0-3.4,29-2,70.4c1.8,52.3,24.3,110.2,41.1,141.1c-1.5-0.7-3-1.3-4.5-1.9
		c-4.5-1.5-9.2-1.9-13.4,0c-12.5,5.6-12.8,27.9-12.8,31.3c0,3.7,0.4,6.8,1.1,9.6h-38.3c0-0.8,0.1-1.6,0.1-2.5
		c0-6.2-1.4-12.5-5.9-16.6c-1.6-1.4-3.3-2.4-5.3-3.1c-2.1-0.8-4.3-1.2-6.6-1.3c0,0,0,0,0,0c-0.7,0-1.4-0.1-2.1,0
		c0.1-0.1,0.1-0.3,0.2-0.4c2.7-5.6,3.5-9.6,3.6-15.3c0-1.8,0.1-5.6-0.4-10.1c-0.3-2.9-0.8-6.1-1.8-9.1l0,0
		c-1.7-5.5-4.5-10.7-9.4-13.3c-7.4-4-16.7-0.8-23.5,2.8c-4.5,2.4-7.8,5-8.9,5.8c-1.5,1.1-2.8,2.3-3.9,3.4l0,0
		c-0.2,0.2-0.4,0.4-0.6,0.6c0,0,0,0,0,0c-0.2-0.2-0.3-0.4-0.5-0.6c-1.9-2.3-4.2-4.1-7-5.1c-7.6-2.7-15.9,1.5-21.9,5.9c0,0,0,0,0,0h0
		c-5.4-6.4-14-14.4-23.2-13.2c-6.2,0.9-10.9,5.8-14.2,11.2c-1.9-2.8-4-5-6.8-7.4c-1.6-1.4-5.5-4.7-10.4-7.6c0.1-0.6,0.1-1.2,0.2-1.8
		c1.1-8.5,3-16.9,5.9-25.1c1.5-1.6,4.6-5.6,10.9-9.6c10.8-6.8,16.5-4.2,26.5-10.3c6.6-4,10.3-8.9,14.1-13.9
		c9.7-12.8,14.6-28.7,14.6-28.8c-15.7,11.6-20.1,14.1-20.1,14.1c-8.6,4.8-12,4.6-17.9,7.4c-20.6,9.8-30.1,36-29.6,40.9
		c-2.8,8.1-4.8,16.5-5.8,25c0,0.4-0.1,0.8-0.1,1.2c-2.2-1.2-4.6-2.4-7.1-3.2c-1.4-0.4-2.8-0.8-4.1-1c-1-7.4-1.5-13-1.6-18.3
		c-0.1-14.3,2.7-29,8.5-43.7c2.5-1.5,5.9-3.6,10-6c3.8-2.2,6-3.4,7.5-4.3c1.2-0.7,10.6-6.1,17.5-12.8c6.2-6.1,8.9-11.9,14.1-23.1
		c2.5-5.3,5.6-12.8,8.3-22.2c0,0-0.1,0-0.2,0c-6.8,1.2-11.5,3.8-13.3,4.7c-9.3,4.9-11,4.1-18,8.2c-3.8,2.3-11.8,7.1-18.1,16.3
		c0,0-8,11.7-8.8,37.3c-6.2,15.3-9.2,30.6-9.1,45.5c0.1,5.3,0.6,10.8,1.5,18.1c-2.7-0.2-5.3,0.1-7.8,1.2c-2.9,1.3-5.1,3.4-6.8,6
		c0,0,0-0.1-0.1-0.1c-0.8-1.4-1.7-2.6-2.5-3.7c-2.2-3-4.2-5.1-6.3-7c0,0,0,0,0,0c-1.8-1.6-3.6-3.1-5.5-4.7c-0.5-0.4-0.9-0.8-1.4-1.2
		c-0.3-0.3-0.6-0.5-0.8-0.8c-2.8-2.6-5.8-5.7-9.3-10.6c-9.5-13.1-10.2-21.7-12.2-21.3c-1.5,0.3-2.9,5.6-3,13
		c-0.1,8.2,1.4,19,6.2,28.5c1.9,0.1,3.8,0.3,5.6,0.7c0.6,0.1,1.2,0.3,1.9,0.4c0.4,0.1,0.7,0.2,1.1,0.3c0.6,0.2,1.2,0.4,1.8,0.6
		c0.3,0.1,0.7,0.2,1,0.3c0.3,0.1,0.7,0.2,1,0.4l0.9,0.3c0.5,0.2,1,0.5,1.6,0.7c0.3,0.1,0.6,0.3,0.9,0.4c0.1,0,0.1,0.1,0.2,0.1
		c0.3,0.2,0.6,0.3,0.9,0.5c0.3,0.2,0.7,0.4,1,0.5c0.2,0.1,0.4,0.2,0.5,0.3c0.2,0.1,0.5,0.3,0.7,0.4c1.6,1,3.2,2.1,4.7,3.3
		c0.3,0.2,0.5,0.4,0.7,0.6c0.3,0.2,0.6,0.4,0.8,0.7c0.6,0.5,1.2,1,1.8,1.5c0.3,0.3,0.6,0.5,0.9,0.8c1.1,1.1,2.2,2.2,3.3,3.3
		c-2.2,7.4-2.3,15.1-2.3,16.9c0,4.4,0.5,8.1,1.6,11.4c-1.6,0.6-3,1.4-4.4,2.6c-4.5,3.8-5.9,10-6,16.1c-0.1,0-0.1,0-0.2,0
		c-5-0.4-25.8-1.9-32.3,9.8c-0.6,1-1,2.1-1.3,3.1h-5.2c-0.8-12-2-26.5-5.8-45.7c-3.2-16.4-7.9-34.3-11-42.2c-3.1,30-1.4,58,5.1,83.5
		c0.4,1.6,0.8,3.1,1.2,4.4h-1c-0.4-1.3-0.7-2.6-1.1-4.2c-6.7-26.1-8.4-54.9-5-85.6c-0.7-1.5-1.3-2.3-1.7-2.2
		c-0.9,0.2-0.7,4.1-0.8,11.2c-0.2,16.4-1.7,22.3-2.5,35.4c0,0-1.1,15.6,0.2,38.7c-0.1-0.4-0.1-0.7-0.2-1.1
		c-3.2-16.4-7.9-34.3-11-42.2c-1.8,17.4-2,34.1-0.5,50.1h-1c-1.5-16.5-1.3-33.9,0.7-52c-0.7-1.5-1.3-2.3-1.7-2.2
		c-0.9,0.2-0.7,4.1-0.8,11.2c-0.2,16.4-1.7,22.3-2.5,35.4c0,0-0.2,2.7-0.3,7.7h-119c-1.1-0.9-2.2-1.6-3.5-2.1
		c0.9-3.2,1.4-6.7,1.3-11c0-3.2-0.4-24.8-11.9-30.3c-3.8-1.8-8.1-1.5-12.2-0.1c-7.7,2.7-14.8,8.9-17,11c-2.6,2.3-4.4,4.3-6.1,7
		c-3.1-5.2-7.4-10-13-10.9c-8.3-1.3-16.1,6.4-21,12.5v0c-2.1-1.6-4.4-3.2-6.9-4.4c0.9-3,1.2-5.8,1.2-9.3c0-1.8,0.1-5.6-0.4-10.1
		c-0.3-2.9-0.8-6.1-1.8-9.1l0,0c-1.7-5.5-4.5-10.7-9.4-13.3c-7.4-4-16.7-0.8-23.5,2.8c-4.5,2.4-7.8,5-8.9,5.8
		c-1.5,1.1-2.8,2.3-3.9,3.4l0,0c-0.2,0.2-0.4,0.4-0.6,0.6c0,0,0,0,0,0c-0.2-0.2-0.3-0.4-0.5-0.6c-1.9-2.3-4.2-4.1-7-5.1
		c-7.6-2.7-15.9,1.5-21.9,5.9c0,0,0,0,0,0h0c-2.1-2.6-4.8-5.4-7.8-7.7c9.7-41.7,17-95.2,12.4-143.3c-1.6-16.5-3.5-31.5-5.4-44.1
		c-0.9-6.1-1.8-11.7-2.7-16.7c-3-17.7-5.4-28-5.4-28c-5.7-24.2-10.1-34.8-15.6-65.5c-2.4-13.3-3.2-20.7-4.9-20.7
		c-2.5,0-5.2,16.8-7.2,39.3c3.7,18.6,8.6,43.4,12.7,67c4,22.8,7.2,44.5,8.1,58.2c0,0.3,0,0.6,0.1,0.9c2.4,39.7,1.4,91.3-0.4,110.9
		c-0.5,6-2.7,20.1-5.4,36.4c-0.3,0-0.7,0-1,0.1c2.7-16.4,4.9-30.6,5.4-36.6c1.8-19.4,2.8-70.2,0.5-109.8c0-0.3,0-0.6-0.1-1
		c-0.8-13.7-4.2-36.1-8.3-59.6c-3.8-22-8.3-45.1-11.9-63.1c-1.2,14.9-2.1,32-2.5,48.2c-0.4,20.5,0.1,38.1,1,53.5
		c1.2,20.7,3.2,37.6,4.6,52.6c0.2,2.2,0.4,4.3,0.6,6.4c3.8,45.5,3.2,83.6,1.5,113.4c-2.2,2-4.1,4.4-5.7,7c-1.9-2.8-4-5-6.8-7.4
		c-0.2-0.2-0.5-0.4-0.8-0.7c-4.1-16.6-8.8-39.5-11-68.1c-1-13.8-1.6-30.7-6.5-55.6c-3.2-16.4-7.9-34.3-11-42.2
		c-3.1,30-1.4,58,5.1,83.5c1.3,5.1,2.4,8.4,3.4,11.6c1.4,4.5,2.8,8.7,4.5,16.9c2.9,13.6,4,24.2,5,34.5c0.4,4.4,0.9,8.6,1.5,13
		c-0.4-0.2-0.7-0.4-1.1-0.7c-0.5-4.1-0.9-8.1-1.4-12.2c-1-10.2-2.1-20.8-5-34.3c-1.8-8.2-3.1-12.4-4.5-16.9c-1-3.2-2.1-6.6-3.4-11.6
		c-6.7-26.1-8.4-54.9-5-85.6c-0.7-1.5-1.3-2.3-1.7-2.2c-0.9,0.2-0.7,4.1-0.8,11.2c-0.2,16.4-1.7,22.3-2.5,35.4
		c0,0-1.3,19.5,0.7,47.3c1.6,22.4,8.6,46.1,16.3,65.6c-0.3-0.1-0.5-0.2-0.8-0.3c-4.5-1.5-9.2-1.9-13.4,0
		c-12.5,5.6-12.8,27.9-12.8,31.3c0,4.4,0.5,8.1,1.6,11.4c-1.6,0.6-3,1.4-4.4,2.6c-4.5,3.8-5.9,10-6,16.1c-0.1,0-0.1,0-0.2,0
		c-5-0.4-25.8-1.9-32.3,9.8c-1.2,2.2-1.8,4.5-1.9,7h-6.4c-17.1-8.2-32.9-13.2-50.4-14.9c-29.2-2.8-55.4,4.4-74.5,12.1
		c-31.7-19.3-55.4-30.5-83.4-33.2c-48.4-4.6-88.5,18-102,25.7c-6,3.4-11.2,6.8-16,10.2h-4.9c0-0.5-0.1-1-0.1-1.6
		c-0.3-2.9-0.8-6.1-1.8-9.1l0,0c-1.7-5.5-4.5-10.7-9.4-13.3c-7.4-4-16.7-0.8-23.5,2.8c-1.5,0.8-2.9,1.6-4.1,2.4
		c-0.2-2.5-0.4-5.1-0.7-7.7c-0.9-9-2.2-18.4-3.6-26.5c-1.1,11.3-2.5,25.8-3.5,40.1c-0.3,0.3-0.6,0.6-0.9,0.8l0,0
		c-0.1,0.1-0.1,0.1-0.2,0.2c1.2-16.3,2.8-32.9,4-44.8c-1.9-10.2-3.8-17.4-5-17.3c-0.9,0.1-1,4-1.8,11.1c-1.7,16.3-3.7,22.1-5.8,35
		c0,0-0.6,3.7-1.3,10.2c-1-0.2-2-0.3-3.1-0.3c-9.2-33.1-22.3-76.1-31-88.7c-0.1,13.8,1.2,27.3,3.8,40.2c1.9,9.3,3.8,15.2,6.4,23.4
		c2.3,7,5,15.4,8.6,28.6c-0.3,0.2-0.6,0.3-0.9,0.5c-3.7-13.4-6.4-21.8-8.7-28.8c-2.7-8.2-4.6-14.2-6.5-23.5
		c-2.7-13.4-4-27.4-3.8-41.8c-1.3-1.6-2.5-2.4-3.6-2.3c-6.9,1.1-4.4,43,3.6,87c-2.6-1.1-5.4-1.6-8.3-1.2
		c-6.2,0.9-10.9,5.8-14.2,11.2c-1.9-2.8-4-5-6.8-7.4c-2.5-2.1-10.3-8.7-18.8-11.5c-4.5-1.5-9.2-1.9-13.4,0
		c-11.7,5.2-12.7,25-12.8,30.4c-6.7-3.8-13.2-7.2-19.4-10.1c5.2-1.7,9.2-4.3,13.3-7c13.5-8.7,23.5-21.9,23.6-22
		c-18.7,5.5-23.7,6.3-23.7,6.3c-9.8,1.6-12.8,0.2-19.4,0.8c-9.8,0.9-18.6,5.4-25.7,10.5c-5.4-1.2-11-2.1-16.6-2.7
		c-3.4-0.3-6.7-0.5-10-0.6c4-7,8.9-13.7,14.6-20.1c2.8-0.6,6.8-1.4,11.5-2.2c4.4-0.8,6.8-1.1,8.5-1.4c1.4-0.2,12-2.1,20.8-6
		c7.9-3.6,12.4-8.1,21.2-16.9c4.2-4.2,9.7-10.1,15.4-17.9c0,0-0.1,0-0.2,0c-6.8-1.2-12.1-0.4-14.1-0.1c-10.4,1.4-11.8,0-19.7,1.5
		c-4.4,0.8-13.5,2.6-22.6,9.1c0,0-11.5,8.2-21.1,32c-6.3,7-11.7,14.4-16.1,22.1c-15.4-0.2-29.8,2.2-42.4,5.7
		c-0.4-1.3-0.9-2.7-1.3-4.2c-4.4-15.6-2.1-23.9-4.2-24.2c-1.6-0.2-4.7,4.3-7.3,11.2c-2.3,6.2-4.3,14.4-4.3,22.8
		c-11.7,4.5-21,9.4-27.2,12.8c0-2-0.1-5-0.4-8.2c-0.3-2.9-0.8-6.1-1.8-9.1l0,0c-1.7-5.5-4.5-10.7-9.4-13.3c-7.4-4-16.7-0.8-23.5,2.8
		c-4.5,2.4-7.8,5-8.9,5.8c-1.5,1.1-2.8,2.3-3.9,3.4l0,0c-0.2,0.2-0.4,0.4-0.6,0.6c0,0,0,0,0,0c-0.2-0.2-0.3-0.4-0.5-0.6
		c-1.9-2.3-4.2-4.1-7-5.1c-7.6-2.7-15.9,1.5-21.9,5.9c0,0,0,0,0,0h0c-5.4-6.4-14-14.4-23.2-13.2c-6.2,0.9-10.9,5.8-14.2,11.2
		c-0.4-0.6-0.8-1.1-1.2-1.6c1.5-13.2,0.9-23.9,0.4-35.2c-0.5-10.3-1.1-20.9-0.3-34.8c0.5-8.4,1.2-12.8,1.9-17.4
		c0.5-3.3,1.1-6.8,1.6-12c2.5-26.2,0-54.2-7.7-83.3c-1.9,8.3-3.7,26.7-4.4,43.4c-1,25.3,1,42.1,2.1,55.9c2.1,26.7,1.3,48.7-0.1,65.4
		c-6.3-24.7-16.6-67.2-18.7-125.4c-0.8-20.6-0.6-45.8-6.7-83c-5.4-33.1-14.9-70.1-18.5-69.7c-1.3,0.2-1.4,4.8-1.8,13.2
		c6.2,29.4,10.2,58.8,12,87.7c1.5,24.9,0.8,42.1,0.3,55.9c-0.8,20.5-1.3,35.4,5.5,60.9c6.5,24.3,18,52.7,25.4,69.9
		c-0.5-0.4-1-0.8-1.6-1.2c-7.4-17.3-18.5-44.8-24.8-68.4c-6.8-25.7-6.3-40.5-5.5-61.1c0.5-13.8,1.1-30.9-0.3-55.8
		c-1.6-27.6-5.4-55.7-11.2-83.9c-1.4,24-4.1,32.8-6.4,52c0,0-3.4,29-2,70.4c1.8,52.3,24.3,110.2,41.1,141.1c-1.5-0.7-3-1.3-4.5-1.9
		c-4.5-1.5-9.2-1.9-13.4,0c-12.5,5.6-12.8,27.9-12.8,31.3c0,3.7,0.4,6.8,1.1,9.6h-75.2V526h-24.6v501.6h3048V561.2h110.1v-32.4
		c3.4-2,6.9-4.2,10.2-6.6c0.8-0.5,1.5-1.1,2.2-1.7l0,0c0.4-0.2,0.7-0.5,1.1-0.8c4.3-3.3,8.4-6.8,12.2-10.5c0.5-0.5,1.1-1,1.6-1.5
		c1.3-1.3,2.6-2.6,3.8-4c4.1-4.4,8-9.1,11.5-14C3141.3,488.7,3138,488.2,3134.9,488.3z"/>
	<circle class="st2" cx="2244.4" cy="252.4" r="15.5"/>
	<circle class="st2" cx="1884.2" cy="160.4" r="7.8"/>
	<circle class="st2" cx="1681.3" cy="137.1" r="6.7"/>
	<path class="st2" d="M1663,355.3c-0.5,5.2-1,8.7-1.6,12c-0.7,4.6-1.4,9-1.9,17.4c-0.8,13.8-0.2,24.5,0.3,34.7
		c0.6,10.9,1.1,21.3-0.2,34.1c7.8-22.5,16.2-60.5,13.5-93.7c-2.3-27.8-6.6-46.8-6.6-46.8c-2.9-12.8-5.2-18.4-7.9-34.6
		c-1.2-7-1.6-10.9-2.5-10.9c-0.4,0-0.9,0.9-1.4,2.5C1662.9,299.7,1665.6,328.4,1663,355.3z"/>
	<path class="st2" d="M1927.4,338.8c6.1,0,11.1-5,11.1-11.1s-5-11.1-11.1-11.1c-6.1,0-11.1,5-11.1,11.1S1921.3,338.8,1927.4,338.8z"
		/>
	<circle class="st2" cx="2315.3" cy="354.3" r="4.4"/>
	<path class="st2" d="M2825.2,132.6c6.1,0,11.1-5,11.1-11.1c0-6.1-5-11.1-11.1-11.1c-6.1,0-11.1,5-11.1,11.1
		C2814.1,127.7,2819.1,132.6,2825.2,132.6z"/>
	<circle class="st2" cx="2982.6" cy="77.2" r="6.7"/>
	<circle class="st2" cx="2464.9" cy="189.2" r="5.5"/>
	<path class="st2" d="M2177.2,115.6c3.7,0,6.7-3,6.7-6.7s-3-6.7-6.7-6.7s-6.7,3-6.7,6.7S2173.5,115.6,2177.2,115.6z"/>
	<circle class="st2" cx="3020.2" cy="230.2" r="6.7"/>
</g>
<g class="st3">
	<path class="st4" d="M145.9,281c1.7,2.3,11.7-1.9,17.6-5.6c4.8-3,8.1-6.3,9.4-7.6c4.9-5.2,9.1-12.1,9.1-12.1c0,0-12.5,1.9-21.3,6.9
		C151,268.2,144.2,278.6,145.9,281z"/>
	<path class="st4" d="M151,347.3c4.4-6.6,6.5-12.6,7.3-15c3-9.2,3.9-20.1,3.9-20.1c0,0-15.1,10.1-23.4,21.7
		c-9.2,12.8-11.2,29.4-7.3,31.1C135.3,366.7,145.6,355.3,151,347.3z"/>
	<path class="st4" d="M130,400.3c3.8,1.6,14.1-9.7,19.5-17.8c4.4-6.6,6.5-12.6,7.3-15c3-9.2,3.9-20.1,3.9-20.1
		c0,0-15.1,10.1-23.4,21.7C128.2,382,126.1,398.6,130,400.3z"/>
	<path class="st4" d="M140.8,422.1c3.8,1.6,14.1-9.7,19.5-17.8c4.4-6.6,6.5-12.6,7.3-15c3-9.2,3.9-20.1,3.9-20.1
		c0,0-15.1,10.1-23.4,21.7C138.9,403.8,136.8,420.4,140.8,422.1z"/>
	<path class="st4" d="M122,470.4c-0.2,0-0.4,0-0.5,0c-1.8,0.1-3.4,0.3-5,0.6c-2.7,0.4-5.1,1-7.1,1.5l0,0c0.2,0,0.4,0,0.6,0
		c2.6,0.1,5.2,0.1,7.8,0.2c0.1,0,0.1,0,0.2,0l0,0c1.8,0,3.6,0.1,5.4,0.1c0.1,0,0.1,0,0.2,0l0,0c8,0.1,15.8,0,23.4,0
		C141.5,470.5,129.9,469.8,122,470.4z"/>
	<path class="st4" d="M148.1,445.5c-0.7-4.4-16.7-8.6-26.9-9.6c-8.3-0.9-14.9,0.1-17.4,0.6c-9.9,1.8-20,6.3-20,6.3
		c0,0,17.7,9.3,32.6,11.4C133,456.5,148.8,450.1,148.1,445.5z"/>
	<path class="st4" d="M126.4,353.2c2.1-2.8-3.2-14.3-7.4-20.8c-3.5-5.3-7.1-8.6-8.5-9.8c-5.7-4.8-12.9-8.3-12.9-8.3
		c0,0,3.2,15.2,9.1,25C113.3,350.2,124.2,356.1,126.4,353.2z"/>
	<path class="st4" d="M126.8,322.8c2.4-2.5-1.6-14.6-5.1-21.5c-2.9-5.7-6.1-9.3-7.4-10.7c-5.1-5.4-12-9.6-12-9.7
		c0,0,1.5,15.5,6.4,25.9C114,318.4,124.3,325.5,126.8,322.8z"/>
	<path class="st4" d="M856.5,348c1.4,1.9,9.6-1.6,14.4-4.5c3.9-2.4,6.6-5.1,7.6-6.2c4-4.2,7.4-9.9,7.4-9.9c0,0-10.2,1.5-17.3,5.6
		C860.6,337.6,855,346,856.5,348z"/>
	<path class="st4" d="M840.9,382.1c1.9-2-1.3-11.9-4.2-17.5c-2.3-4.6-5-7.6-6-8.7c-4.2-4.4-9.7-7.9-9.7-7.9c0,0,1.3,12.6,5.2,21.1
		C830.5,378.5,838.9,384.2,840.9,382.1z"/>
	<path class="st4" d="M491.3,347.9c5.9,3.6,15.9,7.9,17.6,5.6c1.8-2.4-5-12.8-14.8-18.4c-8.8-5-21.3-6.9-21.3-6.9
		c0,0,4.2,6.9,9.1,12.1C483.2,341.6,486.5,344.9,491.3,347.9z"/>
	<path class="st4" d="M503.9,419.8c5.3,8,15.7,19.4,19.5,17.8c3.9-1.7,1.9-18.3-7.3-31.1c-8.2-11.5-23.4-21.7-23.4-21.7
		c0,0,0.9,10.8,3.9,20.1C497.4,407.1,499.5,413.2,503.9,419.8z"/>
	<path class="st4" d="M535.9,404.9c-4.2,6.5-9.5,18-7.4,20.8c2.2,2.9,13.2-3,19.8-13.9c5.9-9.8,9.1-25,9.1-25c0,0-7.3,3.5-12.9,8.3
		C543,396.3,539.3,399.6,535.9,404.9z"/>
	<path class="st4" d="M528.1,395.3c2.5,2.6,12.8-4.4,18.1-15.9c4.8-10.4,6.4-25.9,6.4-25.9c0,0-6.9,4.2-12,9.7
		c-1.3,1.4-4.6,5-7.4,10.7C529.7,380.7,525.7,392.8,528.1,395.3z"/>
	<path class="st4" d="M1019.7,304.5c1.4,1.9,9.6-1.6,14.4-4.5c3.9-2.4,6.6-5.1,7.6-6.2c4-4.2,7.4-9.9,7.4-9.9c0,0-10.2,1.5-17.3,5.6
		C1023.8,294.1,1018.2,302.5,1019.7,304.5z"/>
	<path class="st4" d="M1004.1,338.6c1.9-2-1.3-11.9-4.2-17.5c-2.3-4.6-5-7.6-6-8.7c-4.2-4.4-9.7-7.9-9.7-7.9c0,0,1.3,12.6,5.2,21.1
		C993.7,335,1002,340.7,1004.1,338.6z"/>
	<path class="st4" d="M1423,387c1.6,1.2,3.5,1.3,7.3,1.5c7.5,0.4,11.9,0.6,16.2-1.5c0.8-0.4,2.1-1.2,3.5-0.8c2.1,0.5,4.1,3,3.6,4.4
		c-1.2,3.4-18.3,3.8-29.8,0c-1-0.3-2.8-1-3.8-0.1c-2.3,1.9,1.6,10,4.9,16.9c3.1,6.5,4.7,9.8,6.3,10.7c8.9,5.1,25.2-8.2,26.7-6
		c0.3,0.5-0.3,1.5-0.9,2.3c-4,5.9-10.7,5.2-11.5,7.7c-1.2,3.9,11,16.5,21.7,14.2c9.7-2.1,18.5-16.4,27.7-20.8
		c1.6-0.8,3.3-1.3,3.3-1.3c5.2-1.6,9.5-1.1,11-1c7.4,0.6,19.1-3.7,22.5-11.1c2-4.2,0.8-8.4-1.2-15.7c-0.8-3-3.6-8.1-9.1-18.2
		c-1.3-2.4-2.5-4.6-5-6.7c-3.2-2.7-8.3-5.1-10-3.5c-1.4,1.3,0.9,4,1.6,10c0.7,6.1-0.9,10.6-3.5,17.9c-1.3,3.7-3.1,8.6-5.2,8.5
		c-0.8,0-1.4-0.8-1.5-1c-2.3-3.1,4.4-9.2,6.8-17c3.2-10-0.5-22.3-7.8-28.8c-6-5.4-15-7.6-17.2-5.1c-1,1.2,0.1,2.9,1.4,9.7
		c0.1,0.3,1.1,6.3,1.3,11.4c0.3,8.2-1.8,15.7-2.6,15.6c-0.6-0.1-0.4-4.2-0.8-15.2c-0.8-19.6-2.1-21.7-3.7-23.2
		c-4.5-4.3-12-3.6-18.7-2.9c-1.6,0.2-2.8,0.4-3.5,1.3c-1.9,2.2,0.5,6.4,3.2,14.3c2.2,6.6,3.5,12.4,3.2,12.5
		c-0.4,0.1-5.9-8.4-7.6-18.6c-0.3-1.6-0.6-4.3-2.7-6.5c-0.9-0.9-2.2-1.8-6.7-2.9c-3.9-0.9-7.7-1.4-12.4-1.5c-6.5-0.1-9.8-0.1-11,1.6
		c-1.1,1.5-0.4,3.1,0.5,7.7c2,10.8,0.1,11.5,2,14.1c4.3,5.7,14.8,3,15.8,7.2c0.2,0.7,0.1,1.8-0.5,2.4c-3,2.6-14.4-10-18.5-7.3
		c-1.9,1.2-0.9,6.1,0.9,15.7C1420.3,383.5,1421.1,385.6,1423,387z"/>
	<circle class="st4" cx="-26.5" cy="377" r="5.5"/>
	
		<ellipse transform="matrix(0.9871 -0.1602 0.1602 0.9871 -32.0274 76.5578)" class="st4" cx="458.8" cy="236.9" rx="7.7" ry="7.7"/>
	<ellipse transform="matrix(0.9732 -0.2298 0.2298 0.9732 -10.3112 8.5794)" class="st4" cx="31.7" cy="48.6" rx="6.9" ry="6.9"/>
	<ellipse transform="matrix(0.9732 -0.2298 0.2298 0.9732 -49.574 72.3143)" class="st4" cx="285.8" cy="249" rx="6.9" ry="6.9"/>
	<path class="st4" d="M1135.3,404.9c3.8,0,6.9-3.1,6.9-6.9s-3.1-6.9-6.9-6.9c-3.8,0-6.9,3.1-6.9,6.9S1131.4,404.9,1135.3,404.9z"/>
	<path class="st4" d="M1310,194.5c1.6,0,3-1.3,3-3s-1.3-3-3-3c-1.6,0-3,1.3-3,3S1308.3,194.5,1310,194.5z"/>
	<path class="st4" d="M1040,47.6c3.8,0,6.9-3.1,6.9-6.9s-3.1-6.9-6.9-6.9c-3.8,0-6.9,3.1-6.9,6.9S1036.2,47.6,1040,47.6z"/>
	<circle class="st4" cx="190.5" cy="344.3" r="5"/>
	<path class="st4" d="M1172,285.8c3.3,0,6-2.7,6-6c0-3.3-2.7-6-6-6c-3.3,0-6,2.7-6,6C1166.1,283.1,1168.7,285.8,1172,285.8z"/>
	<path class="st4" d="M1791,289.6c1.7,2.3,11.7-1.9,17.6-5.6c4.8-3,8.1-6.3,9.4-7.6c4.9-5.2,9.1-12.1,9.1-12.1
		c0,0-12.5,1.9-21.3,6.9C1796,276.8,1789.2,287.2,1791,289.6z"/>
	<path class="st4" d="M1796.1,355.9c4.4-6.6,6.5-12.6,7.3-15c3-9.2,3.9-20.1,3.9-20.1c0,0-15.1,10.1-23.4,21.7
		c-9.2,12.8-11.2,29.4-7.3,31.1C1780.3,375.3,1790.7,364,1796.1,355.9z"/>
	<path class="st4" d="M1775.1,409c3.8,1.6,14.1-9.7,19.5-17.8c4.4-6.6,6.5-12.6,7.3-15c3-9.2,3.9-20.1,3.9-20.1
		c0,0-15.1,10.1-23.4,21.7C1773.2,390.6,1771.2,407.2,1775.1,409z"/>
	<path class="st4" d="M1785.9,430.7c3.8,1.6,14.1-9.7,19.5-17.8c4.4-6.6,6.5-12.6,7.3-15c3-9.2,3.9-20.1,3.9-20.1
		c0,0-15.1,10.1-23.4,21.7C1784,412.4,1781.9,429,1785.9,430.7z"/>
	<path class="st4" d="M1767.1,479c-0.2,0-0.4,0-0.5,0c-1.8,0.1-3.4,0.3-5,0.6c-2.7,0.4-5.1,1-7.1,1.5l0,0c0.2,0,0.4,0,0.6,0
		c2.6,0.1,5.2,0.1,7.8,0.2c0.1,0,0.1,0,0.2,0l0,0c1.8,0,3.6,0.1,5.4,0.1c0.1,0,0.1,0,0.2,0l0,0c8,0.1,15.8,0,23.4,0
		C1786.5,479.2,1775,478.5,1767.1,479z"/>
	<path class="st4" d="M1793.2,454.2c-0.7-4.4-16.7-8.6-26.9-9.6c-8.3-0.9-14.9,0.1-17.4,0.6c-9.9,1.8-20,6.3-20,6.3
		c0,0,17.7,9.3,32.6,11.4C1778.1,465.1,1793.9,458.8,1793.2,454.2z"/>
	<path class="st4" d="M1771.5,361.9c2.1-2.8-3.2-14.3-7.4-20.8c-3.5-5.3-7.1-8.6-8.5-9.8c-5.7-4.8-12.9-8.3-12.9-8.3
		c0,0,3.2,15.2,9.1,25C1758.3,358.9,1769.3,364.8,1771.5,361.9z"/>
	<path class="st4" d="M1771.9,331.5c2.4-2.5-1.6-14.6-5.1-21.5c-2.9-5.7-6.1-9.3-7.4-10.7c-5.1-5.4-12-9.6-12-9.7
		c0,0,1.5,15.5,6.4,25.9C1759.1,327.1,1769.4,334.1,1771.9,331.5z"/>
	<path class="st4" d="M2501.6,356.7c1.4,1.9,9.6-1.6,14.4-4.5c3.9-2.4,6.6-5.1,7.6-6.2c4-4.2,7.4-9.9,7.4-9.9c0,0-10.2,1.5-17.3,5.6
		C2505.7,346.2,2500.1,354.7,2501.6,356.7z"/>
	<path class="st4" d="M2486,390.7c1.9-2-1.3-11.9-4.2-17.5c-2.3-4.6-5-7.6-6-8.7c-4.2-4.4-9.7-7.9-9.7-7.9c0,0,1.3,12.6,5.2,21.1
		C2475.6,387.1,2483.9,392.9,2486,390.7z"/>
	<path class="st4" d="M2136.4,356.6c5.9,3.6,15.9,7.9,17.6,5.6c1.8-2.4-5-12.8-14.8-18.4c-8.8-5-21.3-6.9-21.3-6.9
		c0,0,4.2,6.9,9.1,12.1C2128.3,350.3,2131.5,353.6,2136.4,356.6z"/>
	<path class="st4" d="M2149,428.4c5.3,8,15.7,19.4,19.5,17.8c3.9-1.7,1.9-18.3-7.3-31.1c-8.2-11.5-23.4-21.7-23.4-21.7
		c0,0,0.9,10.8,3.9,20.1C2142.5,415.8,2144.6,421.8,2149,428.4z"/>
	<path class="st4" d="M2181,413.6c-4.2,6.5-9.5,18-7.4,20.8c2.2,2.9,13.2-3,19.8-13.9c5.9-9.8,9.1-25,9.1-25c0,0-7.3,3.5-12.9,8.3
		C2188.1,405,2184.4,408.2,2181,413.6z"/>
	<path class="st4" d="M2173.2,404c2.5,2.6,12.8-4.4,18.1-15.9c4.8-10.4,6.4-25.9,6.4-25.9c0,0-6.9,4.2-12,9.7
		c-1.3,1.4-4.6,5-7.4,10.7C2174.8,389.4,2170.8,401.4,2173.2,404z"/>
	<path class="st4" d="M2664.8,313.2c1.4,1.9,9.6-1.6,14.4-4.5c3.9-2.4,6.6-5.1,7.6-6.2c4-4.2,7.4-9.9,7.4-9.9c0,0-10.2,1.5-17.3,5.6
		C2668.8,302.7,2663.3,311.2,2664.8,313.2z"/>
	<path class="st4" d="M2649.1,347.2c1.9-2-1.3-11.9-4.2-17.5c-2.3-4.6-5-7.6-6-8.7c-4.2-4.4-9.7-7.9-9.7-7.9c0,0,1.3,12.6,5.2,21.1
		C2638.7,343.6,2647.1,349.4,2649.1,347.2z"/>
	<path class="st4" d="M3175.5,395.2c-0.8-3-3.6-8.1-9.1-18.2c-1.3-2.4-2.5-4.6-5-6.7c-3.2-2.7-8.3-5.1-10-3.5c-1.4,1.3,0.9,4,1.6,10
		c0.7,6.1-0.9,10.6-3.5,17.9c-1.3,3.7-3.1,8.6-5.2,8.5c-0.8,0-1.4-0.8-1.5-1c-2.3-3.1,4.4-9.2,6.8-17c3.2-10-0.5-22.3-7.8-28.8
		c-6-5.4-15-7.6-17.2-5.1c-1,1.2,0.1,2.9,1.4,9.7c0.1,0.3,1.1,6.3,1.3,11.4c0.3,8.2-1.8,15.7-2.6,15.6c-0.6-0.1-0.4-4.2-0.8-15.2
		c-0.8-19.6-2.1-21.7-3.7-23.2c-4.5-4.3-12-3.6-18.7-2.9c-1.6,0.2-2.8,0.4-3.5,1.3c-1.9,2.2,0.5,6.4,3.2,14.3
		c2.2,6.6,3.5,12.4,3.2,12.5c-0.4,0.1-5.9-8.4-7.6-18.6c-0.3-1.6-0.6-4.3-2.7-6.5c-0.9-0.9-2.2-1.8-6.7-2.9
		c-3.9-0.9-7.7-1.4-12.4-1.5c-6.5-0.1-9.8-0.1-11,1.6c-1.1,1.5-0.4,3.1,0.5,7.7c2,10.8,0.1,11.5,2,14.1c4.3,5.7,14.8,3,15.8,7.2
		c0.2,0.7,0.1,1.8-0.5,2.4c-3,2.6-14.4-10-18.5-7.3c-1.9,1.2-0.9,6.1,0.9,15.7c1,5.3,1.9,7.4,3.7,8.8c1.6,1.2,3.5,1.3,7.3,1.5
		c7.5,0.4,11.9,0.6,16.2-1.5c0.8-0.4,2.1-1.2,3.5-0.8c2.1,0.5,4.1,3,3.6,4.4c-1.2,3.4-18.3,3.8-29.8,0c-1-0.3-2.8-1-3.8-0.1
		c-2.3,1.9,1.6,10,4.9,16.9c3.1,6.5,4.7,9.8,6.3,10.7c8.9,5.1,25.2-8.2,26.7-6c0.3,0.5-0.3,1.5-0.9,2.3c-4,5.9-10.7,5.2-11.5,7.7
		c-1.2,3.9,11,16.5,21.7,14.2c9.7-2.1,18.5-16.4,27.7-20.8c1.6-0.8,3.3-1.3,3.3-1.3c5.2-1.6,9.5-1.1,11-1
		c7.4,0.6,19.1-3.7,22.5-11.1C3178.7,406.7,3177.6,402.6,3175.5,395.2z"/>
	<path class="st4" d="M3001,431.3c0.2-2.1,0.4-4.3,0.6-6.4c1.4-15,3.3-31.9,4.6-52.6c0.9-15.5,1.4-33,1-53.5
		c-0.3-16.2-1.2-33.3-2.5-48.2c-3.6,18-8.1,41-11.9,63.1c-4.1,23.5-7.5,45.9-8.3,59.6c0,0.3,0,0.6-0.1,1
		c-1.9,32.7-1.5,73.1-0.4,97.1h-1c-1.2-24.3-1.6-65.3,0.4-98.1c0-0.3,0-0.6,0.1-0.9c0.9-13.7,4.2-35.4,8.1-58.2
		c4.1-23.6,8.9-48.4,12.7-67c-2-22.6-4.7-39.4-7.2-39.3c-1.6,0-2.5,7.4-4.9,20.7c-5.5,30.7-10,41.3-15.6,65.5c0,0-2.4,10.3-5.4,28
		c-0.9,5-1.8,10.6-2.7,16.7c-1.9,12.7-3.8,27.6-5.4,44.1c-1.6,16.6-1.7,33.8-0.9,50.9c-0.3-1-0.5-2-0.9-3.1
		c-0.9-3.1-3.8-8.5-9.6-19.2c-1.4-2.5-2.7-4.9-5.3-7.1c-3.4-2.9-8.7-5.4-10.5-3.7c-1.5,1.4,1,4.3,1.7,10.6c0.7,6.4-1,11.2-3.7,18.9
		c-1.4,4-3.3,9.1-5.5,9c-0.9,0-1.5-0.8-1.6-1c-2.4-3.3,4.6-9.8,7.2-17.9c3.4-10.5-0.6-23.5-8.2-30.4c-6.3-5.7-15.9-8-18.1-5.4
		c-1.1,1.3,0.1,3.1,1.4,10.3c0.1,0.4,1.2,6.6,1.4,12c0.3,8.6-1.9,16.5-2.8,16.4c-0.6-0.1-0.4-4.4-0.9-16
		c-0.9-20.7-2.3-22.9-3.9-24.5c-4.8-4.6-12.6-3.8-19.7-3.1c-1.7,0.2-2.9,0.4-3.7,1.4c-2,2.4,0.5,6.7,3.4,15.1
		c2.3,7,3.6,13.1,3.4,13.2c-0.4,0.1-6.2-8.9-8-19.6c-0.3-1.6-0.6-4.6-2.9-6.8c-0.9-0.9-2.3-1.9-7-3.1c-4.1-1-8.1-1.5-13.1-1.5
		c-6.9-0.1-10.3-0.1-11.6,1.7c-1.1,1.6-0.4,3.2,0.5,8.2c2.1,11.4,0.1,12.2,2.1,14.9c4.5,6,15.6,3.1,16.7,7.6
		c0.2,0.8,0.1,1.9-0.6,2.5c-3.2,2.7-15.2-10.5-19.5-7.8c-2,1.3-1,6.4,1,16.6c1.1,5.6,2,7.8,3.9,9.3c1.7,1.3,3.7,1.4,7.7,1.6
		c7.9,0.4,12.5,0.7,17.1-1.6c0.9-0.5,2.2-1.2,3.7-0.9c2.2,0.5,4.3,3.2,3.8,4.7c-1.3,3.5-19.3,4-31.5,0c-1.1-0.4-3-1-4.1-0.1
		c-2.4,2.1,1.7,10.6,5.2,17.9c3.3,6.9,5,10.4,6.7,11.3c9.3,5.3,26.6-8.6,28.2-6.3c0.4,0.5-0.4,1.6-1,2.5c-4.3,6.2-11.3,5.5-12.2,8.2
		c-0.3,0.8,0,1.9,0.7,3.2H2540c0.3-0.5,0.6-1,0.9-1.5c0.4-0.7,0.8-1.4,1.2-2.1c0.1-0.2,0.3-0.5,0.4-0.7c0.4-0.7,0.8-1.4,1.1-2.1
		c18.1-1.1,38.5-2.2,61.6-3.6c2.7-0.2,5.4-0.3,8.1-0.5c2.1-0.1,4.1-0.2,6.2-0.4c4-0.2,8.1-0.5,12.3-0.7c5.7-0.3,11.5-0.7,17.5-1
		c14.9-0.9,30.3-1.7,46.2-1.9c13.7-0.1,27.6,0.2,41.7,1.4c4.1,0.3,8.2,0.8,12.4,1.3c-1.4-18,0.5-22-0.4-28.9
		c-0.2-1.4-0.5-2.9-0.9-4.7c-3-11.7-7.4-12.2-12.2-20.2c-1.3-2.3-2.7-5.1-4.1-9c-5.5-15.7-2.8-24.5-11.4-32
		c-4.7-4.1-7.1-2.8-12.1-7.7c-8.7-8.5-5.5-16.1-11-19.9c-0.1-0.1-0.1-0.1-0.2-0.2c-2.2-1.4-4.6-1.5-7.4-0.7c0,0,0,0,0,0
		c-4.6,1.3-10.5,4.8-19.5,8.3c2.6-4.4,3.9-8.2,4.4-9.8c2.4-7.5,3.2-16.4,3.2-16.4c0,0-12.3,8.2-19,17.6c-3.2,4.5-5.4,9.6-6.5,14.1
		c-0.5,0.1-0.9,0.2-1.3,0.3c0-2.3,0-4.3-0.1-6c-0.1-2.6-0.3-4.6-0.5-6.3c-0.2-2-0.4-3.6-0.4-5.5c0-1.4,0.2-2.8,0.5-4.7
		c0.1,0.3,0.3,0.6,0.6,0.8c2.6,1.7,11.7-5.5,16.7-10.9c4.1-4.4,6.4-8.6,7.2-10.3c0.3-0.6,0.6-1.3,0.9-2c2.8-6.1,4.5-12.6,4.5-12.6
		s-2.4,1.1-5.7,2.9l0,0c-4.3,2.4-10.1,6.1-14.4,10.4c-2,2.1-3.8,4.4-5.2,6.7c0.9-2.3,1.9-4.8,3.1-7.7c0.5-1.4,2.2-5.5,5.8-13.3
		c2.7-5.9,5.6-11.9,8.6-17.9c0,0.3,0,0.5,0.2,0.7c0.4,0.5,1.8,0,4.1-1.4c0,0,0,0,0,0c3.1-1.7,7.9-5,14.5-9.4
		c10.4-7,10.4-7.9,10.3-8.1c-0.6-1.5-9.5-0.5-16.9,3.9c-2.1,1.3-4,2.8-5.6,4.4l0,0c-1.4,1.4-2.7,2.8-3.7,4.1
		c0.4-0.8,0.8-1.6,1.2-2.4c0.1-0.2,0.1-0.5-0.1-0.6c1.1-1.7,1-7.4,0.5-10.8c-0.4-3.1-1.4-5.2-1.7-6c-1.5-3.1-3.9-5.9-3.9-5.9
		s-1.6,7.9-0.9,13.5c0.6,5.4,3.4,9.5,5,9.7c-2.7,5.2-5.3,10.4-7.8,15.6c0.7-3.7,0.4-10-0.4-14.2c-0.8-4.7-2.3-7.9-3-9.2
		c-2.4-4.8-6.3-9.1-6.3-9.1c0,0-2.1,11.9-0.9,20.5c1.3,9.4,6.9,16.1,9.2,14.8c-1.2,2.5-2.3,4.9-3.4,7.4c-2.6,5.8-4.3,9.5-5.1,11.7
		c0.2-3.8-0.8-9.8-2-13.8c-1.4-4.6-3.2-7.6-4-8.8c-3-4.5-7.3-8.3-7.3-8.3s-0.2,2.4-0.1,5.8c0,2.3,0.1,5.1,0.4,7.9
		c0.2,2.3,0.6,4.7,1.1,6.8c2.3,8.7,8.1,14.7,10.5,13.8c-3.8,9.3-5.7,14.3-6.9,20c-0.5,2.7-0.7,4.7-0.7,6.5c0,1.7,0.2,3.3,0.4,5.1
		c0.2,2,0.5,4.2,0.6,7.4l0,0c0.1,1.5,0.1,3.1,0,5c-0.3,0.1-0.6,0.1-0.9,0.2c0.4-3.3-3.3-11.2-6.4-15.9c-2.8-4.3-5.8-7-7-8
		c-4.6-3.9-10.5-6.8-10.5-6.8c0,0,2.6,12.4,7.4,20.4c3.3,5.5,8.1,9.5,11.6,11.1c-7.1,0.9-9.5,0.3-14.2,3.6c-0.3,0.2-0.6,0.5-0.9,0.7
		c-4.5-2.4-9-3.8-9-3.8s1.5,4.2,4,9.1c-3.9,5.7-4.9,12.3-6.9,18c-3.9-0.7-6.8-1-6.8-1s1.7,2.6,4.4,6.2c-1.3,2.1-3.1,4-5.6,5.4
		c-10.7,6-17.1-5.7-31.7-0.2c-12.9,4.9-25,20.5-31.2,33.4c-0.7,1.4-1.2,2.7-1.8,3.8c-0.8,1.8-1.5,3.1-2.3,3.9l0,0
		c-0.4,0.4-0.9,0.7-1.5,0.7c-1.1,0-2-0.9-2.7-2.5c-0.8-1.7-1.5-4.2-2.2-7.1c-2.4-9.7-5.3-24.1-15.5-29.3c-2.4-1.2-4.7-1.7-7-1.7
		c0-0.1,0-0.2,0-0.2c0,0-0.1,0.1-0.3,0.2c-2.9,0-5.8,0.7-8.9,1.5c0.5-0.6,0.9-1.3,1.3-1.9c3.6-5.4,5.3-10.3,5.9-12.2
		c2.4-7.5,3.2-16.4,3.2-16.4c0,0-12.3,8.2-19,17.6c-3.3,4.6-5.4,9.8-6.6,14.2c-0.4,0-0.8-0.1-1.3-0.2c0-2.2,0-4.1-0.1-5.7
		c-0.1-2.6-0.3-4.6-0.5-6.3c-0.2-2-0.4-3.6-0.4-5.5c0-1.4,0.2-2.8,0.5-4.7c0.1,0.3,0.3,0.6,0.6,0.8c2.6,1.7,11.7-5.5,16.7-10.9
		c4.1-4.4,6.4-8.6,7.2-10.3c0.3-0.6,0.6-1.3,0.9-2c2.8-6.1,4.5-12.6,4.5-12.6s-2.4,1.1-5.7,2.9l0,0c-4.3,2.4-10.1,6.1-14.4,10.4
		c-2,2.1-3.8,4.4-5.2,6.7c0.9-2.3,1.9-4.8,3.1-7.7c0.5-1.4,2.2-5.5,5.8-13.3c2.7-5.9,5.6-11.9,8.6-17.9c0,0.3,0,0.5,0.2,0.7
		c0.4,0.5,1.8,0,4.1-1.4c0,0,0,0,0,0c3.1-1.7,7.9-5,14.5-9.4c10.4-7,10.4-7.9,10.3-8.1c-0.6-1.5-9.5-0.5-16.9,3.9
		c-2.1,1.3-4,2.8-5.6,4.4l0,0c-1.4,1.4-2.7,2.8-3.7,4.1c0.4-0.8,0.8-1.6,1.2-2.4c0.1-0.2,0.1-0.5-0.1-0.6c1.1-1.7,1-7.4,0.5-10.8
		c-0.4-3.1-1.4-5.2-1.7-6c-1.5-3.1-3.9-5.9-3.9-5.9s-1.6,7.9-0.9,13.5c0.6,5.4,3.4,9.5,5,9.7c-2.7,5.2-5.3,10.4-7.8,15.6
		c0.7-3.7,0.4-10-0.4-14.2c-0.8-4.7-2.3-7.9-3-9.2c-2.4-4.8-6.3-9.1-6.3-9.1c0,0-2.1,11.9-0.9,20.5c1.3,9.4,6.9,16.1,9.2,14.8
		c-1.2,2.5-2.3,4.9-3.4,7.4c-2.6,5.8-4.3,9.5-5.1,11.7c0.2-3.8-0.8-9.8-2-13.8c-1.4-4.6-3.2-7.6-4-8.8c-3-4.5-7.3-8.3-7.3-8.3
		s-0.2,2.4-0.1,5.8c0,2.3,0.1,5.1,0.4,7.9c0.2,2.3,0.6,4.7,1.1,6.8c2.3,8.7,8.1,14.7,10.5,13.8c-3.8,9.3-5.7,14.3-6.9,20
		c-0.5,2.7-0.7,4.7-0.7,6.5c0,1.7,0.2,3.3,0.4,5.1c0.2,2,0.5,4.2,0.6,7.4l0,0c0,1.3,0.1,2.7,0.1,4.3c-0.3-0.1-0.6-0.1-0.9-0.2
		c-0.3-3.7-3.6-10.6-6.4-14.9c-2.8-4.3-5.8-7-7-8c-4.6-3.9-10.5-6.8-10.5-6.8c0,0,2.6,12.4,7.4,20.4c0.2,0.3,0.4,0.6,0.6,0.9
		c-0.5-0.5-1-1-1.5-1.4c-2.1-1.9-3.9-3.4-6.5-3.7c-0.1,0-0.3,0-0.4,0c-12.5-0.8-32.1,25.1-41,53c-6.6-5.3-17.8-6.2-21-6.5
		c-0.1,0-0.1,0-0.2,0c0.5-4.8,0-10-3.2-13.6c-1-1.1-2-1.9-3.3-2.6c1.2-2.5,1.9-5.4,2.4-8.9c0.3-2.7,2.4-20.6-7.2-26.5
		c-3.2-2-7-2.2-10.8-1.6c-7.1,1.2-14.1,5.5-16.4,6.9c-2.5,1.6-4.4,3-6.2,5.1c-2.1-4.7-5.4-9.2-10.3-10.7c-7.2-2.1-15,3.2-20,7.7l0,0
		c-4.5-4.3-10.7-8.6-17.1-7.4c-2.4,0.5-4.4,1.6-6.2,3.2c-0.2,0.1-0.3,0.3-0.5,0.4c0,0,0,0,0,0c-0.1-0.2-0.3-0.4-0.4-0.5l0,0
		c-0.8-1.1-1.7-2.1-2.8-3.2c-0.8-0.8-3.2-3.2-6.6-5.7c-5.1-3.7-12.3-7.4-18.7-5.1c-4.2,1.5-7,5.3-8.9,9.5l0,0
		c-1,2.3-1.8,4.8-2.3,7.1c-0.8,3.5-1.2,6.6-1.4,8c-0.5,4.5-0.3,7.8,1.3,12.6c0,0.1,0.1,0.2,0.1,0.4c-0.6-0.1-1.1-0.2-1.7-0.2
		c0,0,0,0,0,0c-1.8-0.2-3.7-0.1-5.4,0.2c-1.6,0.3-3.2,0.9-4.6,1.9c-4,2.7-5.8,7.6-6.4,12.6c-0.3,1.9-0.3,3.8-0.3,5.5
		c-2.5-0.4-5.2-0.4-8.4-0.1c2.4,4.3,5,8.5,7.9,12.6c0.9,1.2,1.8,2.4,2.7,3.6c0.4,0.5,0.7,1,1.1,1.4c2.7,3.4,5.6,6.7,8.8,9.9
		c0.3,0.3,0.5,0.5,0.8,0.7l0,0c0.5,0.6,1.1,1.1,1.6,1.6c2.9,2.8,5.9,5.3,9,7.6c0.4,0.4,0.9,0.7,1.4,1c0.9,0.7,1.9,1.4,2.8,2
		c0.3,0.2,0.5,0.4,0.8,0.6l0,0c0.6,0.4,1.2,0.8,1.8,1.2c0.7,0.5,1.4,0.9,2.1,1.3c0.6,0.4,1.2,0.7,1.8,1.1c2,1.2,4,2.3,6.1,3.3
		c0.5,0.3,1.1,0.5,1.6,0.8c0.3,0.1,0.5,0.3,0.8,0.4l1.5,0.7h-86.9c3.4-2.9,6.7-6.2,9.6-9.6c6.6-7.6,11.3-14.9,11.3-14.9
		s-4.6,0.4-10.4,1.6c-3.2,0.7-6.8,1.5-10.2,2.7c-2.4,0.8-8.5,3.1-15.2,7.9c-1-1.9-2.2-4.1-3.5-6.5c-0.5-1-1-1.9-1.6-2.9
		c4.6-1.2,11.2-5.2,16.4-11.5c1.9-2.3,3.7-5.1,5.3-7.9c4.4-7.7,7.3-15.6,7.3-15.6s-7.7,2.4-14,6.3c-0.9,0.6-2.5,1.6-4.5,3.3l0,0
		c-1.6,1.3-3.5,3-5.3,5.2c-3.4,3.9-7.7,10-9.6,14.5c0-3.5-0.4-6.1-0.9-8.8c-0.1-0.5-0.2-1-0.3-1.6c-0.8-4.3-1.7-9.2-2-18.8
		c-0.1-3.2-0.1-5.9,0-8.2l0,0c0.1-3.9,0.4-6.6,0.7-9.1c0.2-2.2,0.4-4.1,0.4-6.3c0-2.2-0.2-4.7-0.9-8c-1.4-7.1-3.8-13.2-8.4-24.6
		c3,1,10.1-6.3,12.9-17c0.7-2.6,1.1-5.5,1.4-8.3c0.3-3.4,0.5-6.9,0.5-9.7c0-4.2-0.2-7.1-0.2-7.1s-5.3,4.6-9,10.2
		c-0.9,1.4-3.2,5.2-4.9,10.8c-1.4,4.9-2.7,12.4-2.4,17c-1.1-2.6-3.1-7.2-6.3-14.3c-1.4-3-2.8-6-4.2-9c2.9,1.6,9.7-6.7,11.3-18.2
		c1.5-10.5-1.1-25.2-1.1-25.2c0,0-4.8,5.2-7.8,11.1c-0.8,1.5-2.6,5.5-3.6,11.3c-0.9,5.1-1.3,12.9-0.5,17.4
		c-3.1-6.4-6.3-12.8-9.6-19.1c2-0.2,5.4-5.2,6.2-11.9c0.8-6.9-1.2-16.6-1.2-16.6s-3,3.3-4.8,7.2c-0.5,1-1.6,3.6-2.1,7.3
		c-0.6,4.2-0.7,11.2,0.7,13.3c-0.2,0.2-0.3,0.5-0.1,0.7c0.5,1,1,2,1.5,3c-1.2-1.6-2.7-3.4-4.5-5.1l0,0c-2-1.9-4.3-3.8-6.9-5.4
		c-9-5.5-19.9-6.7-20.7-4.8c-0.1,0.3-0.2,1.4,12.6,10c8.2,5.5,14.1,9.4,17.8,11.6c0,0,0,0,0,0c2.9,1.6,4.5,2.2,5.1,1.7
		c0.2-0.2,0.2-0.5,0.2-0.8c3.7,7.3,7.2,14.7,10.5,21.9c4.4,9.6,6.5,14.7,7.1,16.3c1.5,3.6,2.7,6.7,3.8,9.5c-1.8-2.8-3.9-5.6-6.4-8.2
		c-5.2-5.3-12.4-9.8-17.6-12.8l0,0c-4.1-2.3-7-3.6-7-3.6s2,8,5.5,15.5c0.4,0.8,0.8,1.6,1.2,2.4c1.1,2.1,3.9,7.3,8.9,12.7
		c6.1,6.6,17.3,15.4,20.5,13.4c0.3-0.2,0.6-0.5,0.7-1c0.4,2.3,0.6,4.1,0.6,5.7c0,2.3-0.2,4.3-0.4,6.7c-0.2,2.1-0.5,4.5-0.6,7.7
		c-0.1,2.6-0.2,5.8-0.1,9.7c0.3,9.7,1.2,14.8,2,19c0.2,0.9,0.3,1.8,0.5,2.7c0.4,2.2,0.6,4.4,0.7,7.3c-1.8-1.2-3.7-2.1-5.3-2.5
		c-1.5-3.7-3.5-7.6-6-11.1c-8.2-11.5-23.4-21.7-23.4-21.7c0,0,0.7,7.8,2.7,15.9c-2.2-0.3-4,0-4.8,1c-1.1,1.3,0.1,3.1,1.4,10.3
		c0,0.1,0.2,1.2,0.5,2.8c-1.2-1-2.4-2-3.5-2.9c-0.8-9.3-1.9-10.9-3.1-12c-4.8-4.6-12.6-3.8-19.7-3.1c-1.7,0.2-2.9,0.4-3.7,1.4
		c-2,2.4,0.5,6.7,3.4,15.1c2.3,7,3.6,13.1,3.4,13.2c-0.4,0.1-6.2-8.9-8-19.6c-0.3-1.6-0.6-4.6-2.9-6.8c-0.9-0.9-2.3-1.9-7-3.1
		c-4.1-1-8.1-1.5-13.1-1.5c-6.9-0.1-10.3-0.1-11.6,1.7c-1.1,1.6-0.4,3.2,0.5,8.2c2.1,11.4,0.1,12.2,2.1,14.9
		c4.5,6,15.6,3.1,16.7,7.6c0.2,0.8,0.1,1.9-0.6,2.5c-3.2,2.7-15.2-10.5-19.5-7.8c-2,1.3-1,6.4,1,16.6c0.9,4.4,1.6,6.8,2.9,8.3
		h-121.5c1.1-0.6,2.2-1.2,3.3-1.8c0.6-0.3,1.2-0.7,1.8-1.1c0.7-0.4,1.4-0.9,2.1-1.3c0.6-0.4,1.2-0.8,1.8-1.2l0,0
		c0.3-0.2,0.6-0.4,0.8-0.6c0.9-0.6,1.9-1.3,2.8-2c0.5-0.3,0.9-0.7,1.4-1c3.1-2.3,6.1-4.9,9-7.6c0.6-0.5,1.1-1,1.6-1.6l0,0
		c0.3-0.2,0.5-0.5,0.8-0.7c3.2-3.2,6.1-6.5,8.8-9.9c0.4-0.5,0.8-0.9,1.1-1.4c0.9-1.2,1.8-2.4,2.7-3.6c2.9-4.1,5.5-8.2,7.9-12.6
		c-3.2-0.4-5.9-0.3-8.4,0.1c0-1.8-0.1-3.7-0.3-5.5c-0.7-4.9-2.4-9.8-6.4-12.6c-1.4-0.9-2.9-1.5-4.6-1.9c-1.8-0.4-3.6-0.4-5.4-0.2
		c0,0,0,0,0,0c-0.6,0.1-1.2,0.1-1.7,0.2c0-0.1,0.1-0.2,0.1-0.4c1.6-4.8,1.9-8.1,1.3-12.6c-0.2-1.4-0.5-4.5-1.4-8
		c-0.5-2.3-1.3-4.7-2.3-7.1l0,0c-1.9-4.2-4.7-8-8.9-9.5c-6.4-2.3-13.6,1.4-18.7,5.1c-3.4,2.4-5.8,4.9-6.6,5.7
		c-1.1,1.1-2,2.1-2.8,3.2l0,0c-0.1,0.2-0.3,0.4-0.4,0.5c0,0,0,0,0,0c-0.2-0.2-0.3-0.3-0.5-0.4c-1.8-1.6-3.8-2.7-6.2-3.2
		c-6.4-1.2-12.7,3.1-17.1,7.4v0c-5-4.5-12.8-9.8-20-7.7c-4.9,1.5-8.2,5.9-10.3,10.7c-1.8-2-3.7-3.5-6.2-5.1
		c-2.3-1.4-9.2-5.7-16.4-6.9c-3.8-0.6-7.6-0.4-10.8,1.6c-9.6,6-7.5,23.8-7.2,26.5c0.5,3.5,1.2,6.4,2.4,8.9c-1.2,0.7-2.3,1.5-3.3,2.6
		c-2.5,2.8-3.4,6.5-3.4,10.3c-0.8,0.3-1.6,0.6-2.4,0.9c-1.9,0.7-3.9,1.6-6,2.5c-0.9,0.4-1.8,0.8-2.7,1.3c-0.6,0.3-1.1,0.6-1.7,0.9
		c-4.6,1.5-9.1,3.9-11.5,7.8c-1.2,1.1-2.3,2.1-3.3,3.2c-1.6,1.7-3.1,3.5-4.3,5.3c-0.7-4.4-1.8-8.4-3.5-12c-0.1-0.2-0.2-0.4-0.3-0.6
		c1.2,0,2.8-0.8,4.6-2.1c0.8-0.6,1.6-1.3,2.5-2.1c3.1-2.8,6.4-6.7,9.2-10.3c0.8-1.1,1.6-2.2,2.3-3.3c0,0,0.1-0.1,0.1-0.1
		c4.3-6.4,6.4-12.3,7.2-14.8l0.1-0.2c3-9.2,3.9-20.1,3.9-20.1s-4.6,3.1-10.2,7.8l0,0c-2.6,2.3-5.5,4.9-8.1,7.7l0,0
		c-1.8,2-3.6,4-5.1,6.1c-2.1,2.9-3.8,6-5.2,9.1c-0.7,1.7-1.4,3.4-1.9,5c-0.5,1.4-0.8,2.8-1.1,4.1c-0.8,3.3-1.1,6.2-0.9,8.5
		c-0.3-0.4-0.5-0.9-0.8-1.3c-1.5-2.1-3.1-3.8-4.8-5.7c-2.2-2.5-4.7-5.1-7.1-8.8c-1.4-2-2.8-4.3-4.2-7.1c-0.1-0.3-0.3-0.6-0.4-0.9
		c-0.1-1.2-0.8-2.6-1.9-4.3c-2.5-6.1-5.4-15.2-6.1-26.4c-0.4-5.6-0.1-9,0.5-12.4c0.2-0.9,0.3-1.8,0.5-2.7c0.8-4.1,1.7-9.3,2-19
		c0.1-3.9,0-7.1-0.1-9.7c-0.1-3.2-0.4-5.6-0.6-7.7c-0.3-2.4-0.5-4.4-0.4-6.7c0-1.7,0.2-3.5,0.6-5.7c0.2,0.4,0.4,0.8,0.7,1
		c3.2,2.1,14.4-6.8,20.5-13.4c5-5.4,7.8-10.6,8.9-12.7c0.4-0.8,0.8-1.6,1.2-2.4c3.4-7.5,5.5-15.5,5.5-15.5s-2.9,1.3-7,3.6l0,0
		c-5.2,2.9-12.4,7.5-17.6,12.8c-2.5,2.5-4.7,5.4-6.4,8.2c1.1-2.8,2.3-5.9,3.8-9.5c0.7-1.7,2.7-6.7,7.1-16.3
		c3.3-7.3,6.9-14.6,10.5-21.9c0,0.4,0,0.7,0.2,0.8c0.5,0.6,2.2,0,5.1-1.7c0,0,0,0,0,0c3.8-2.1,9.6-6.1,17.8-11.6
		c12.8-8.6,12.7-9.7,12.6-10c-0.8-1.9-11.7-0.7-20.7,4.8c-2.6,1.6-4.9,3.4-6.9,5.4l0,0c-1.7,1.7-3.3,3.4-4.5,5.1c0.5-1,1-2,1.5-3
		c0.1-0.3,0.1-0.6-0.1-0.7c1.3-2.1,1.3-9,0.7-13.3c-0.5-3.8-1.7-6.4-2.1-7.3c-1.8-3.9-4.8-7.2-4.8-7.2s-1.9,9.7-1.2,16.6
		c0.7,6.7,4.1,11.7,6.2,11.9c-3.3,6.4-6.5,12.8-9.6,19.1c0.9-4.5,0.4-12.3-0.5-17.4c-1-5.8-2.9-9.8-3.6-11.3
		c-3-5.9-7.8-11.1-7.8-11.1c0,0-2.6,14.7-1.1,25.2c1.6,11.5,8.4,19.8,11.3,18.2c-1.4,3-2.8,6-4.2,9c-3.2,7.1-5.2,11.7-6.3,14.3
		c0.3-4.6-1-12.1-2.4-17c-1.7-5.6-4-9.4-4.9-10.8c-3.6-5.6-9-10.2-9-10.2s-0.2,2.9-0.2,7.1c0,2.8,0.1,6.3,0.5,9.7
		c0.3,2.9,0.7,5.7,1.4,8.3c2.8,10.7,9.9,18,12.9,17c-4.6,11.4-7,17.5-8.4,24.6c-0.7,3.3-0.9,5.8-0.9,8c0,2.1,0.2,4.1,0.4,6.3
		c0.3,2.4,0.6,5.2,0.7,9.1l0,0c0.1,2.3,0.1,5,0,8.2c-0.3,9.6-1.2,14.5-2,18.8c-0.1,0.5-0.2,1.1-0.3,1.6c-0.5,2.7-0.9,5.3-0.9,8.8
		c-1.9-4.5-6.1-10.6-9.6-14.5c-1.9-2.1-3.7-3.8-5.3-5.2l0,0c-2-1.7-3.7-2.8-4.5-3.3c-6.3-3.9-14-6.3-14-6.3s2.9,7.9,7.3,15.6
		c1.6,2.8,3.4,5.5,5.3,7.9c7.5,9.1,18.1,13.4,21,11.4c0.7,9,2.7,16.6,4.7,22.4c-3.9-4.5-9.7-9.6-14.3-12.9c-6.8-4.9-13-7.2-15.4-8.1
		c-3.4-1.2-7-2.1-10.2-2.7c-5.8-1.2-10.4-1.6-10.4-1.6s4.7,7.3,11.3,14.9c3.4,3.9,7.4,8,11.5,11.1c12.7,9.6,28.5,12.2,31.5,8.7
		c1.4,2.7,2.7,4.9,4.1,6.9c2.5,3.8,5,6.5,7.3,9c1.7,1.9,3.3,3.6,4.7,5.6c1.2,1.7,2.3,3.5,3.3,5.5c2,4.1,3.3,8.7,3.9,13.9
		c-1.1,1.6-2,3.2-2.7,4.7c-1.3,2.8-2,5.2-2,6.8l0,0c1,0,2,0,3,0c2.8,0,5.5-0.1,8.2-0.1c0,0,0,0,0,0c0.4-0.2,0.7-0.3,1.1-0.5
		c1.2-0.6,2.4-1.3,3.6-1.9c2.6,4.2,5.6,7.5,6.5,8.4c0.9,1,1.9,1.9,2.8,2.7c0.6,0.6,1.3,1,1.9,1.5h-130.9c0.9-3.1,1-6.3-0.2-9.3
		c-4.1-10.1-21-11.4-25.1-11.8c-0.1,0-0.1,0-0.2,0c0.5-4.8,0-10-3.2-13.6c-1-1.1-2-1.9-3.3-2.6c1.2-2.5,1.9-5.4,2.4-8.9
		c0.3-2.7,2.4-20.6-7.2-26.5c-3.2-2-7-2.2-10.8-1.6c-7.1,1.2-14.1,5.5-16.4,6.9c-2.5,1.6-4.4,3-6.2,5.1c-2.1-4.7-5.4-9.2-10.3-10.7
		c-7.2-2.1-15,3.2-20,7.7l0,0c-4.5-4.3-10.7-8.6-17.1-7.4c-2.4,0.5-4.4,1.6-6.2,3.2c-0.2,0.1-0.3,0.3-0.5,0.4c0,0,0,0,0,0
		c-0.1-0.2-0.3-0.4-0.4-0.5l0,0c-0.8-1.1-1.7-2.1-2.8-3.2c-0.8-0.8-3.2-3.2-6.6-5.7c-5.1-3.7-12.3-7.4-18.7-5.1
		c-4.2,1.5-7,5.3-8.9,9.5l0,0c-1,2.3-1.8,4.8-2.3,7.1c-0.8,3.5-1.2,6.6-1.4,8c-0.5,4.5-0.3,7.8,1.3,12.6c0,0.1,0.1,0.2,0.1,0.4
		c-0.6-0.1-1.1-0.2-1.7-0.2c0,0,0,0,0,0c-1.8-0.2-3.7-0.1-5.4,0.2c-1.6,0.3-3.2,0.9-4.6,1.9c-4,2.7-5.8,7.6-6.4,12.6
		c-0.3,1.9-0.3,3.8-0.3,5.5c-2.5-0.4-5.2-0.4-8.4-0.1c2.4,4.3,5,8.5,7.9,12.6c0.9,1.2,1.8,2.4,2.7,3.6c0.4,0.5,0.7,1,1.1,1.4
		c2.3,2.9,4.7,5.7,7.3,8.4H1353c0-20.5,0.7-43.4,2.8-68.6c0.2-2.1,0.4-4.3,0.6-6.4c1.4-15,3.3-31.9,4.6-52.6c0.9-15.5,1.4-33,1-53.5
		c-0.3-16.2-1.2-33.3-2.5-48.2c-3.6,18-8.1,41-11.9,63.1c-4.1,23.5-7.5,45.9-8.3,59.6c0,0.3,0,0.6-0.1,1c-2.2,37-1.4,84.1,0.2,105.8
		h-1c-1.6-22-2.3-69.6-0.1-106.8c0-0.3,0-0.6,0.1-0.9c0.9-13.7,4.2-35.4,8.1-58.2c4.1-23.6,8.9-48.4,12.7-67
		c-2-22.6-4.7-39.4-7.2-39.3c-1.6,0-2.5,7.4-4.9,20.7c-5.5,30.7-10,41.3-15.6,65.5c0,0-2.4,10.3-5.4,28c-0.9,5-1.8,10.6-2.7,16.7
		c-1.9,12.7-3.8,27.6-5.4,44.1c-1.6,16.6-1.7,33.8-0.9,50.9c-0.3-1-0.5-2-0.9-3.1c-0.9-3.1-3.8-8.5-9.6-19.2
		c-1.4-2.5-2.7-4.9-5.3-7.1c-3.4-2.9-8.7-5.4-10.5-3.7c-1.5,1.4,1,4.3,1.7,10.6c0.7,6.4-1,11.2-3.7,18.9c-1.4,4-3.3,9.1-5.5,9
		c-0.9,0-1.5-0.8-1.6-1c-2.4-3.3,4.6-9.8,7.2-17.9c3.4-10.5-0.6-23.5-8.2-30.4c-6.3-5.7-15.9-8-18.1-5.4c-1.1,1.3,0.1,3.1,1.4,10.3
		c0.1,0.4,1.2,6.6,1.4,12c0.3,8.6-1.9,16.5-2.8,16.4c-0.6-0.1-0.4-4.4-0.9-16c-0.9-20.7-2.3-22.9-3.9-24.5
		c-4.8-4.6-12.6-3.8-19.7-3.1c-1.7,0.2-2.9,0.4-3.7,1.4c-2,2.4,0.5,6.7,3.4,15.1c2.3,7,3.6,13.1,3.4,13.2c-0.4,0.1-6.2-8.9-8-19.6
		c-0.3-1.6-0.6-4.6-2.9-6.8c-0.9-0.9-2.3-1.9-7-3.1c-4.1-1-8.1-1.5-13.1-1.5c-6.9-0.1-10.3-0.1-11.6,1.7c-1.1,1.6-0.4,3.2,0.5,8.2
		c2.1,11.4,0.1,12.2,2.1,14.9c4.5,6,15.6,3.1,16.7,7.6c0.2,0.8,0.1,1.9-0.6,2.5c-3.2,2.7-15.2-10.5-19.5-7.8c-2,1.3-1,6.4,1,16.6
		c1.1,5.6,2,7.8,3.9,9.3c1.7,1.3,3.7,1.4,7.7,1.6c7.9,0.4,12.5,0.7,17.1-1.6c0.9-0.5,2.2-1.2,3.7-0.9c2.2,0.5,4.3,3.2,3.8,4.7
		c-1.3,3.5-19.3,4-31.5,0c-1.1-0.4-3-1-4.1-0.1c-2.4,2.1,1.7,10.6,5.2,17.9c3.3,6.9,5,10.4,6.7,11.3c9.3,5.3,26.6-8.6,28.2-6.3
		c0.4,0.5-0.4,1.6-1,2.5c-4.3,6.2-11.3,5.5-12.2,8.2c-0.8,2.4,3.4,8.1,9.4,11.8H888.5c1.1-1.2,2-2.2,2.6-3c0.2-0.2,0.4-0.5,0.5-0.7
		c0,0,0,0,0,0c0.1-0.1,0.1-0.2,0.2-0.3c0,0,0,0,0-0.1c1.5-2,2.8-4.1,4-6.1c0.4-0.7,0.8-1.4,1.2-2.1c0.1-0.2,0.3-0.5,0.4-0.7
		c0.4-0.7,0.8-1.4,1.1-2.1c18.1-1.1,38.5-2.2,61.6-3.6c2.7-0.2,5.4-0.3,8.1-0.5c2.1-0.1,4.1-0.2,6.2-0.4c4-0.2,8.1-0.5,12.3-0.7
		c5.7-0.3,11.5-0.7,17.5-1c14.9-0.9,30.3-1.7,46.2-1.9c13.7-0.1,27.6,0.2,41.7,1.4c4.1,0.3,8.2,0.8,12.4,1.3
		c-1.4-18,0.5-22-0.4-28.9c-0.2-1.4-0.5-2.9-0.9-4.7c-3-11.7-7.4-12.2-12.2-20.2c-1.3-2.3-2.7-5.1-4.1-9c-5.5-15.7-2.8-24.5-11.4-32
		c-4.7-4.1-7.1-2.8-12.1-7.7c-8.7-8.5-5.5-16.1-11-19.9c-0.1-0.1-0.1-0.1-0.2-0.2c-2.2-1.4-4.6-1.5-7.4-0.7c0,0,0,0,0,0
		c-4.6,1.3-10.5,4.8-19.5,8.3c2.6-4.4,3.9-8.2,4.4-9.8c2.4-7.5,3.2-16.4,3.2-16.4c0,0-12.3,8.2-19,17.6c-3.2,4.5-5.4,9.6-6.5,14.1
		c-0.5,0.1-0.9,0.2-1.3,0.3c0-2.3,0-4.3-0.1-6c-0.1-2.6-0.3-4.6-0.5-6.3c-0.2-2-0.4-3.6-0.4-5.5c0-1.4,0.2-2.8,0.5-4.7
		c0.1,0.3,0.3,0.6,0.6,0.8c2.6,1.7,11.7-5.5,16.7-10.9c4.1-4.4,6.4-8.6,7.2-10.3c0.3-0.6,0.6-1.3,0.9-2c2.8-6.1,4.5-12.6,4.5-12.6
		s-2.4,1.1-5.7,2.9l0,0c-4.3,2.4-10.1,6.1-14.4,10.4c-2,2.1-3.8,4.4-5.2,6.7c0.9-2.3,1.9-4.8,3.1-7.7c0.5-1.4,2.2-5.5,5.8-13.3
		c2.7-5.9,5.6-11.9,8.6-17.9c0,0.3,0,0.5,0.2,0.7c0.4,0.5,1.8,0,4.1-1.4c0,0,0,0,0,0c3.1-1.7,7.9-5,14.5-9.4
		c10.4-7,10.4-7.9,10.3-8.1c-0.6-1.5-9.5-0.5-16.9,3.9c-2.1,1.3-4,2.8-5.6,4.4l0,0c-1.4,1.4-2.7,2.8-3.7,4.1
		c0.4-0.8,0.8-1.6,1.2-2.4c0.1-0.2,0.1-0.5-0.1-0.6c1.1-1.7,1-7.4,0.5-10.8c-0.4-3.1-1.4-5.2-1.7-6c-1.5-3.1-3.9-5.9-3.9-5.9
		s-1.6,7.9-0.9,13.5c0.6,5.4,3.4,9.5,5,9.7c-2.7,5.2-5.3,10.4-7.8,15.6c0.7-3.7,0.4-10-0.4-14.2c-0.8-4.7-2.3-7.9-3-9.2
		c-2.4-4.8-6.3-9.1-6.3-9.1c0,0-2.1,11.9-0.9,20.5c1.3,9.4,6.9,16.1,9.2,14.8c-1.2,2.5-2.3,4.9-3.4,7.4c-2.6,5.8-4.3,9.5-5.1,11.7
		c0.2-3.8-0.8-9.8-2-13.8c-1.4-4.6-3.2-7.6-4-8.8c-3-4.5-7.3-8.3-7.3-8.3s-0.2,2.4-0.1,5.8c0,2.3,0.1,5.1,0.4,7.9
		c0.2,2.3,0.6,4.7,1.1,6.8c2.3,8.7,8.1,14.7,10.5,13.8c-3.8,9.3-5.7,14.3-6.9,20c-0.5,2.7-0.7,4.7-0.7,6.5c0,1.7,0.2,3.3,0.4,5.1
		c0.2,2,0.5,4.2,0.6,7.4l0,0c0.1,1.5,0.1,3.1,0,5c-0.3,0.1-0.6,0.1-0.9,0.2c0.4-3.3-3.3-11.2-6.4-15.9c-2.8-4.3-5.8-7-7-8
		c-4.6-3.9-10.5-6.8-10.5-6.8c0,0,2.6,12.4,7.4,20.4c3.3,5.5,8.1,9.5,11.6,11.1c-7.1,0.9-9.5,0.3-14.2,3.6c-0.3,0.2-0.6,0.5-0.9,0.7
		c-4.5-2.4-9-3.8-9-3.8s1.5,4.2,4,9.1c-3.9,5.7-4.9,12.3-6.9,18c-3.9-0.7-6.8-1-6.8-1s1.7,2.6,4.4,6.2c-1.3,2.1-3.1,4-5.6,5.4
		c-10.7,6-17.1-5.7-31.7-0.2c-12.9,4.9-25,20.5-31.2,33.4c-0.7,1.4-1.2,2.7-1.8,3.8c-0.8,1.8-1.5,3.1-2.3,3.9l0,0
		c-0.4,0.4-0.9,0.7-1.5,0.7c-1.1,0-2-0.9-2.7-2.5c-0.8-1.7-1.5-4.2-2.2-7.1c-2.4-9.7-5.3-24.1-15.5-29.3c-2.4-1.2-4.7-1.7-7-1.7
		c0-0.1,0-0.2,0-0.2c0,0-0.1,0.1-0.3,0.2c-2.9,0-5.8,0.7-8.9,1.5c0.5-0.6,0.9-1.3,1.3-1.9c3.6-5.4,5.3-10.3,5.9-12.2
		c2.4-7.5,3.2-16.4,3.2-16.4c0,0-12.3,8.2-19,17.6c-3.3,4.6-5.4,9.8-6.6,14.2c-0.4,0-0.8-0.1-1.3-0.2c0-2.2,0-4.1-0.1-5.7
		c-0.1-2.6-0.3-4.6-0.5-6.3c-0.2-2-0.4-3.6-0.4-5.5c0-1.4,0.2-2.8,0.5-4.7c0.1,0.3,0.3,0.6,0.6,0.8c2.6,1.7,11.7-5.5,16.7-10.9
		c4.1-4.4,6.4-8.6,7.2-10.3c0.3-0.6,0.6-1.3,0.9-2c2.8-6.1,4.5-12.6,4.5-12.6s-2.4,1.1-5.7,2.9l0,0c-4.3,2.4-10.1,6.1-14.4,10.4
		c-2,2.1-3.8,4.4-5.2,6.7c0.9-2.3,1.9-4.8,3.1-7.7c0.5-1.4,2.2-5.5,5.8-13.3c2.7-5.9,5.6-11.9,8.6-17.9c0,0.3,0,0.5,0.2,0.7
		c0.4,0.5,1.8,0,4.1-1.4c0,0,0,0,0,0c3.1-1.7,7.9-5,14.5-9.4c10.4-7,10.4-7.9,10.3-8.1c-0.6-1.5-9.5-0.5-16.9,3.9
		c-2.1,1.3-4,2.8-5.6,4.4l0,0c-1.4,1.4-2.7,2.8-3.7,4.1c0.4-0.8,0.8-1.6,1.2-2.4c0.1-0.2,0.1-0.5-0.1-0.6c1.1-1.7,1-7.4,0.5-10.8
		c-0.4-3.1-1.4-5.2-1.7-6c-1.5-3.1-3.9-5.9-3.9-5.9s-1.6,7.9-0.9,13.5c0.6,5.4,3.4,9.5,5,9.7c-2.7,5.2-5.3,10.4-7.8,15.6
		c0.7-3.7,0.4-10-0.4-14.2c-0.8-4.7-2.3-7.9-3-9.2c-2.4-4.8-6.3-9.1-6.3-9.1c0,0-2.1,11.9-0.9,20.5c1.3,9.4,6.9,16.1,9.2,14.8
		c-1.2,2.5-2.3,4.9-3.4,7.4c-2.6,5.8-4.3,9.5-5.1,11.7c0.2-3.8-0.8-9.8-2-13.8c-1.4-4.6-3.2-7.6-4-8.8c-3-4.5-7.3-8.3-7.3-8.3
		s-0.2,2.4-0.1,5.8c0,2.3,0.1,5.1,0.4,7.9c0.2,2.3,0.6,4.7,1.1,6.8c2.3,8.7,8.1,14.7,10.5,13.8c-3.8,9.3-5.7,14.3-6.9,20
		c-0.5,2.7-0.7,4.7-0.7,6.5c0,1.7,0.2,3.3,0.4,5.1c0.2,2,0.5,4.2,0.6,7.4l0,0c0,1.3,0.1,2.7,0.1,4.3c-0.3-0.1-0.6-0.1-0.9-0.2
		c-0.3-3.7-3.6-10.6-6.4-14.9c-2.8-4.3-5.8-7-7-8c-4.6-3.9-10.5-6.8-10.5-6.8c0,0,2.6,12.4,7.4,20.4c0.2,0.3,0.4,0.6,0.6,0.9
		c-0.5-0.5-1-1-1.5-1.4c-2.1-1.9-3.9-3.4-6.5-3.7c-0.1,0-0.3,0-0.4,0c-12.5-0.8-32.1,25.1-41,53c-6.6-5.3-17.8-6.2-21-6.5
		c-0.1,0-0.1,0-0.2,0c0.5-4.8,0-10-3.2-13.6c-1-1.1-2-1.9-3.3-2.6c1.2-2.5,1.9-5.4,2.4-8.9c0.3-2.7,2.4-20.6-7.2-26.5
		c-3.2-2-7-2.2-10.8-1.6c-7.1,1.2-14.1,5.5-16.4,6.9c-2.5,1.6-4.4,3-6.2,5.1c-2.1-4.7-5.4-9.2-10.3-10.7c-7.2-2.1-15,3.2-20,7.7l0,0
		c-4.5-4.3-10.7-8.6-17.1-7.4c-2.4,0.5-4.4,1.6-6.2,3.2c-0.2,0.1-0.3,0.3-0.5,0.4c0,0,0,0,0,0c-0.1-0.2-0.3-0.4-0.4-0.5l0,0
		c-0.8-1.1-1.7-2.1-2.8-3.2c-0.8-0.8-3.2-3.2-6.6-5.7c-5.1-3.7-12.3-7.4-18.7-5.1c-4.2,1.5-7,5.3-8.9,9.5l0,0
		c-1,2.3-1.8,4.8-2.3,7.1c-0.8,3.5-1.2,6.6-1.4,8c-0.5,4.5-0.3,7.8,1.3,12.6c0,0.1,0.1,0.2,0.1,0.4c-0.6-0.1-1.1-0.2-1.7-0.2
		c0,0,0,0,0,0c-1.8-0.2-3.7-0.1-5.4,0.2c-1.6,0.3-3.2,0.9-4.6,1.9c-4,2.7-5.8,7.6-6.4,12.6c-0.3,1.9-0.3,3.8-0.3,5.5
		c-2.5-0.4-5.2-0.4-8.4-0.1c2.4,4.3,5,8.5,7.9,12.6c0.9,1.2,1.8,2.4,2.7,3.6c0.4,0.5,0.7,1,1.1,1.4c2.7,3.4,5.6,6.7,8.8,9.9
		c0.3,0.3,0.5,0.5,0.8,0.7l0,0c0.5,0.6,1.1,1.1,1.6,1.6c2.9,2.8,5.9,5.3,9,7.6c0.4,0.4,0.9,0.7,1.4,1c0.9,0.7,1.9,1.4,2.8,2
		c0.3,0.2,0.5,0.4,0.8,0.6l0,0c0.6,0.4,1.2,0.8,1.8,1.2c0.7,0.5,1.4,0.9,2.1,1.3c0.6,0.4,1.2,0.7,1.8,1.1c2,1.2,4,2.3,6.1,3.3
		c0.5,0.3,1.1,0.5,1.6,0.8c0.3,0.1,0.5,0.3,0.8,0.4l2.1,0.9c0.2,0.1,0.3,0.1,0.5,0.2c0.9,0.4,1.8,0.8,2.6,1.1c0,0,0,0,0,0
		c0.9,0.4,1.8,0.7,2.8,1.1c0.5,0.2,0.9,0.4,1.4,0.5c0.5,0.2,1,0.4,1.5,0.5c0.4,0.2,0.8,0.3,1.3,0.4c0.3,0.1,0.5,0.2,0.8,0.3
		c0.4,0.1,0.8,0.3,1.2,0.4c1.2,0.4,2.4,0.7,3.6,1.1c1.1,0.3,2.1,0.6,3.2,0.9c1.6,0.4,3.2,0.8,4.7,1.1c0,0,0,0,0.1,0c0,0,0,0,0.1,0
		c0.4,0.1,0.9,0.2,1.3,0.3c0.2,0,0.4,0.1,0.5,0.1c0.2,0,0.4,0.1,0.5,0.1c0.3,0.1,0.6,0.1,0.9,0.2H547.7c-0.2-1-0.4-2.2-0.7-3.4
		c1.9-1.1,3.8-2.4,5.7-3.8c4.1-3.1,8.1-7.2,11.5-11.1c6.6-7.6,11.3-14.9,11.3-14.9s-4.6,0.4-10.4,1.6c-3.2,0.7-6.8,1.5-10.2,2.7
		c-2.4,0.8-8.5,3.1-15.2,7.9c-1-1.9-2.2-4.1-3.5-6.5c-0.5-1-1-1.9-1.6-2.9c4.6-1.2,11.2-5.2,16.4-11.5c1.9-2.3,3.7-5.1,5.3-7.9
		c4.4-7.7,7.3-15.6,7.3-15.6s-7.7,2.4-14,6.3c-0.9,0.6-2.5,1.6-4.5,3.3l0,0c-1.6,1.3-3.5,3-5.3,5.2c-3.4,3.9-7.7,10-9.6,14.5
		c0-3.5-0.4-6.1-0.9-8.8c-0.1-0.5-0.2-1-0.3-1.6c-0.8-4.3-1.7-9.2-2-18.8c-0.1-3.2-0.1-5.9,0-8.2l0,0c0.1-3.9,0.4-6.6,0.7-9.1
		c0.2-2.2,0.4-4.1,0.4-6.3c0-2.2-0.2-4.7-0.9-8c-1.4-7.1-3.8-13.2-8.4-24.6c3,1,10.1-6.3,12.9-17c0.7-2.6,1.1-5.5,1.4-8.3
		c0.3-3.4,0.5-6.9,0.5-9.7c0-4.2-0.2-7.1-0.2-7.1s-5.3,4.6-9,10.2c-0.9,1.4-3.2,5.2-4.9,10.8c-1.4,4.9-2.7,12.4-2.4,17
		c-1.1-2.6-3.1-7.2-6.3-14.3c-1.4-3-2.8-6-4.2-9c2.9,1.6,9.7-6.7,11.3-18.2c1.5-10.5-1.1-25.2-1.1-25.2c0,0-4.8,5.2-7.8,11.1
		c-0.8,1.5-2.6,5.5-3.6,11.3c-0.9,5.1-1.3,12.9-0.5,17.4c-3.1-6.4-6.3-12.8-9.6-19.1c2-0.2,5.4-5.2,6.2-11.9
		c0.8-6.9-1.2-16.6-1.2-16.6s-3,3.3-4.8,7.2c-0.5,1-1.6,3.6-2.1,7.3c-0.6,4.2-0.7,11.2,0.7,13.3c-0.2,0.2-0.3,0.5-0.1,0.7
		c0.5,1,1,2,1.5,3c-1.2-1.6-2.7-3.4-4.5-5.1l0,0c-2-1.9-4.3-3.8-6.9-5.4c-9-5.5-19.9-6.7-20.7-4.8c-0.1,0.3-0.2,1.4,12.6,10
		c8.2,5.5,14.1,9.4,17.8,11.6c0,0,0,0,0,0c2.9,1.6,4.5,2.2,5.1,1.7c0.2-0.2,0.2-0.5,0.2-0.8c3.7,7.3,7.2,14.7,10.5,21.9
		c4.4,9.6,6.5,14.7,7.1,16.3c1.5,3.6,2.7,6.7,3.8,9.5c-1.8-2.8-3.9-5.6-6.4-8.2c-5.2-5.3-12.4-9.8-17.6-12.8l0,0
		c-4.1-2.3-7-3.6-7-3.6s2,8,5.5,15.5c0.4,0.8,0.8,1.6,1.2,2.4c1.1,2.1,3.9,7.3,8.9,12.7c6.1,6.6,17.3,15.4,20.5,13.4
		c0.3-0.2,0.6-0.5,0.7-1c0.4,2.3,0.6,4.1,0.6,5.7c0,2.3-0.2,4.3-0.4,6.7c-0.2,2.1-0.5,4.5-0.6,7.7c-0.1,2.6-0.2,5.8-0.1,9.7
		c0.3,9.7,1.2,14.8,2,19c0.2,0.9,0.3,1.8,0.5,2.7c0.4,2.2,0.6,4.4,0.7,7.3c-1.8-1.2-3.7-2.1-5.3-2.5c-1.5-3.7-3.5-7.6-6-11.1
		c-8.2-11.5-23.4-21.7-23.4-21.7c0,0,0.7,7.8,2.7,15.9c-2.2-0.3-4,0-4.8,1c-1.1,1.3,0.1,3.1,1.4,10.3c0,0.1,0.2,1.2,0.5,2.8
		c-1.2-1-2.4-2-3.5-2.9c-0.8-9.3-1.9-10.9-3.1-12c-4.8-4.6-12.6-3.8-19.7-3.1c-1.7,0.2-2.9,0.4-3.7,1.4c-2,2.4,0.5,6.7,3.4,15.1
		c2.3,7,3.6,13.1,3.4,13.2c-0.4,0.1-6.2-8.9-8-19.6c-0.3-1.6-0.6-4.6-2.9-6.8c-0.9-0.9-2.3-1.9-7-3.1c-4.1-1-8.1-1.5-13.1-1.5
		c-6.9-0.1-10.3-0.1-11.6,1.7c-1.1,1.6-0.4,3.2,0.5,8.2c2.1,11.4,0.1,12.2,2.1,14.9c4.5,6,15.6,3.1,16.7,7.6
		c0.2,0.8,0.1,1.9-0.6,2.5c-3.2,2.7-15.2-10.5-19.5-7.8c-2,1.3-1,6.4,1,16.6c1.1,5.6,2,7.8,3.9,9.3c1.7,1.3,3.7,1.4,7.7,1.6
		c7.9,0.4,12.5,0.7,17.1-1.6c0.9-0.5,2.2-1.2,3.7-0.9c2.2,0.5,4.3,3.2,3.8,4.7c-1.3,3.5-19.3,4-31.5,0c-1.1-0.4-3-1-4.1-0.1
		c-0.8,0.7-0.9,2.1-0.5,4h-140c0.6-0.2,1.2-0.3,1.7-0.5c0.4-0.1,0.8-0.3,1.2-0.4c0.3-0.1,0.5-0.2,0.8-0.3c0.4-0.1,0.8-0.3,1.3-0.4
		c0.5-0.2,1-0.3,1.5-0.5c0.5-0.2,1-0.4,1.4-0.5c0.9-0.4,1.9-0.7,2.8-1.1c0,0,0,0,0,0c0.9-0.4,1.8-0.7,2.6-1.1
		c0.1-0.1,0.3-0.1,0.5-0.2l2.1-0.9c0.3-0.1,0.5-0.3,0.8-0.4c0.5-0.2,1.1-0.5,1.6-0.8c2-1,4.1-2.1,6.1-3.3c0.6-0.3,1.2-0.7,1.8-1.1
		c0.7-0.4,1.4-0.9,2.1-1.3c0.6-0.4,1.2-0.8,1.8-1.2l0,0c0.3-0.2,0.6-0.4,0.8-0.6c0.9-0.6,1.9-1.3,2.8-2c0.5-0.3,0.9-0.7,1.4-1
		c3.1-2.3,6.1-4.9,9-7.6c0.6-0.5,1.1-1,1.6-1.6l0,0c0.3-0.2,0.5-0.5,0.8-0.7c3.2-3.2,6.1-6.5,8.8-9.9c0.4-0.5,0.8-0.9,1.1-1.4
		c0.9-1.2,1.8-2.4,2.7-3.6c2.9-4.1,5.5-8.2,7.9-12.6c-3.2-0.4-5.9-0.3-8.4,0.1c0-1.8-0.1-3.7-0.3-5.5c-0.7-4.9-2.4-9.8-6.4-12.6
		c-1.4-0.9-2.9-1.5-4.6-1.9c-1.8-0.4-3.6-0.4-5.4-0.2c0,0,0,0,0,0c-0.6,0.1-1.2,0.1-1.7,0.2c0-0.1,0.1-0.2,0.1-0.4
		c1.6-4.8,1.9-8.1,1.3-12.6c-0.2-1.4-0.5-4.5-1.4-8c-0.5-2.3-1.3-4.7-2.3-7.1l0,0c-1.9-4.2-4.7-8-8.9-9.5
		c-6.4-2.3-13.6,1.4-18.7,5.1c-3.4,2.4-5.8,4.9-6.6,5.7c-1.1,1.1-2,2.1-2.8,3.2l0,0c-0.1,0.2-0.3,0.4-0.4,0.5c0,0,0,0,0,0
		c-0.2-0.2-0.3-0.3-0.5-0.4c-1.8-1.6-3.8-2.7-6.2-3.2c-6.4-1.2-12.7,3.1-17.1,7.4l0,0c-5-4.5-12.8-9.8-20-7.7
		c-4.9,1.5-8.2,5.9-10.3,10.7c-1.8-2-3.7-3.5-6.2-5.1c-2.3-1.4-9.2-5.7-16.4-6.9c-3.8-0.6-7.6-0.4-10.8,1.6
		c-9.6,6-7.5,23.8-7.2,26.5c0.5,3.5,1.2,6.4,2.4,8.9c-1.2,0.7-2.3,1.5-3.3,2.6c-2.5,2.8-3.4,6.5-3.4,10.3c-0.8,0.3-1.6,0.6-2.4,0.9
		c-1.9,0.7-3.9,1.6-6,2.5c-0.9,0.4-1.8,0.8-2.7,1.3c-0.6,0.3-1.1,0.6-1.7,0.9c-4.6,1.5-9.1,3.9-11.5,7.8c-1.2,1.1-2.3,2.1-3.3,3.2
		c-1.6,1.7-3.1,3.5-4.3,5.3c-0.7-4.4-1.8-8.4-3.5-12c-0.1-0.2-0.2-0.4-0.3-0.6c1.2,0,2.8-0.8,4.6-2.1c0.8-0.6,1.6-1.3,2.5-2.1
		c3.1-2.8,6.4-6.7,9.2-10.3c0.8-1.1,1.6-2.2,2.3-3.3c0,0,0.1-0.1,0.1-0.1c4.3-6.4,6.4-12.3,7.2-14.8l0.1-0.2
		c3-9.2,3.9-20.1,3.9-20.1s-4.6,3.1-10.2,7.8l0,0c-2.6,2.3-5.5,4.9-8.1,7.7l0,0c-1.8,2-3.6,4-5.1,6.1c-2.1,2.9-3.8,6-5.2,9.1
		c-0.7,1.7-1.4,3.4-1.9,5c-0.5,1.4-0.8,2.8-1.1,4.1c-0.8,3.3-1.1,6.2-0.9,8.5c-0.3-0.4-0.5-0.9-0.8-1.3c-1.5-2.1-3.1-3.8-4.8-5.7
		c-2.2-2.5-4.7-5.1-7.1-8.8c-1.4-2-2.8-4.3-4.2-7.1c-0.1-0.3-0.3-0.6-0.4-0.9c-0.1-1.2-0.8-2.6-1.9-4.3c-2.5-6.1-5.4-15.2-6.1-26.4
		c-0.4-5.6-0.1-9,0.5-12.4c0.2-0.9,0.3-1.8,0.5-2.7c0.8-4.1,1.7-9.3,2-19c0.1-3.9,0-7.1-0.1-9.7c-0.1-3.2-0.4-5.6-0.6-7.7
		c-0.3-2.4-0.5-4.4-0.4-6.7c0-1.7,0.2-3.5,0.6-5.7c0.2,0.4,0.4,0.8,0.7,1c3.2,2.1,14.4-6.8,20.5-13.4c5-5.4,7.8-10.6,8.9-12.7
		c0.4-0.8,0.8-1.6,1.2-2.4c3.4-7.5,5.5-15.5,5.5-15.5s-2.9,1.3-7,3.6l0,0c-5.2,2.9-12.4,7.5-17.6,12.8c-2.5,2.5-4.7,5.4-6.4,8.2
		c1.1-2.8,2.3-5.9,3.8-9.5c0.7-1.7,2.7-6.7,7.1-16.3c3.3-7.3,6.9-14.6,10.5-21.9c0,0.4,0,0.7,0.2,0.8c0.5,0.6,2.2,0,5.1-1.7
		c0,0,0,0,0,0c3.8-2.1,9.6-6.1,17.8-11.6c12.8-8.6,12.7-9.7,12.6-10c-0.8-1.9-11.7-0.7-20.7,4.8c-2.6,1.6-4.9,3.4-6.9,5.4l0,0
		c-1.7,1.7-3.3,3.4-4.5,5.1c0.5-1,1-2,1.5-3c0.1-0.3,0.1-0.6-0.1-0.7c1.3-2.1,1.3-9,0.7-13.3c-0.5-3.8-1.7-6.4-2.1-7.3
		c-1.8-3.9-4.8-7.2-4.8-7.2s-1.9,9.7-1.2,16.6c0.7,6.7,4.1,11.7,6.2,11.9c-3.3,6.4-6.5,12.8-9.6,19.1c0.9-4.5,0.4-12.3-0.5-17.4
		c-1-5.8-2.9-9.8-3.6-11.3c-3-5.9-7.8-11.1-7.8-11.1c0,0-2.6,14.7-1.1,25.2c1.6,11.5,8.4,19.8,11.3,18.2c-1.4,3-2.8,6-4.2,9
		c-3.2,7.1-5.2,11.7-6.3,14.3c0.3-4.6-1-12.1-2.4-17c-1.7-5.6-4-9.4-4.9-10.8c-3.6-5.6-9-10.2-9-10.2s-0.2,2.9-0.2,7.1
		c0,2.8,0.1,6.3,0.5,9.7c0.3,2.9,0.7,5.7,1.4,8.3c2.8,10.7,9.9,18,12.9,17c-4.6,11.4-7,17.5-8.4,24.6c-0.7,3.3-0.9,5.8-0.9,8
		c0,2.1,0.2,4.1,0.4,6.3c0.3,2.4,0.6,5.2,0.7,9.1l0,0c0.1,2.3,0.1,5,0,8.2c-0.3,9.6-1.2,14.5-2,18.8c-0.1,0.5-0.2,1.1-0.3,1.6
		c-0.5,2.7-0.9,5.3-0.9,8.8c-1.9-4.5-6.1-10.6-9.6-14.5c-1.9-2.1-3.7-3.8-5.3-5.2l0,0c-2-1.7-3.7-2.8-4.5-3.3
		c-6.3-3.9-14-6.3-14-6.3s2.9,7.9,7.3,15.6c1.6,2.8,3.4,5.5,5.3,7.9c7.5,9.1,18.1,13.4,21,11.4c0.7,9,2.7,16.6,4.7,22.4
		c-3.9-4.5-9.7-9.6-14.3-12.9c-6.8-4.9-13-7.2-15.4-8.1c-3.4-1.2-7-2.1-10.2-2.7c-5.8-1.2-10.4-1.6-10.4-1.6s4.7,7.3,11.3,14.9
		c3.4,3.9,7.4,8,11.5,11.1c12.7,9.6,28.5,12.2,31.5,8.7c1.4,2.7,2.7,4.9,4.1,6.9c2.5,3.8,5,6.5,7.3,9c1.7,1.9,3.3,3.6,4.7,5.6
		c1.2,1.7,2.3,3.5,3.3,5.5c2,4.1,3.3,8.7,3.9,13.9c-1.1,1.6-2,3.2-2.7,4.7c-1.3,2.8-2,5.2-2,6.8l0,0c1,0,2,0,3,0
		c2.7,0,5.5-0.1,8.2-0.1c0,0,0,0,0,0c0.4-0.2,0.7-0.3,1.1-0.5c1.2-0.6,2.4-1.3,3.6-1.9c2.6,4.2,5.6,7.5,6.5,8.4
		c0.9,1,1.9,1.9,2.8,2.7c2.2,1.9,4.4,3.3,6.8,4.3c0.6,2,1.6,4,2.8,5.9H44.4c3.3-5.2,6.2-12,3.9-18c-4.1-10.1-21-11.4-25.1-11.8
		c-0.1,0-0.1,0-0.2,0c0.5-4.8,0-10-3.2-13.6c-1-1.1-2-1.9-3.3-2.6c1.2-2.5,1.9-5.4,2.4-8.9c0.3-2.7,2.4-20.6-7.2-26.5
		c-3.2-2-7-2.2-10.8-1.6c-7.1,1.2-14.1,5.5-16.4,6.9c-2.5,1.6-4.4,3-6.2,5.1c-2.1-4.7-5.4-9.2-10.3-10.7c-7.2-2.1-15,3.2-20,7.7l0,0
		c-4.5-4.3-10.7-8.6-17.1-7.4c-2.4,0.5-4.4,1.6-6.2,3.2c-0.2,0.1-0.3,0.3-0.5,0.4c0,0,0,0,0,0c-0.1-0.2-0.3-0.4-0.4-0.5l0,0
		c-0.8-1.1-1.7-2.1-2.8-3.2c-0.8-0.8-3.2-3.2-6.6-5.7c-5.1-3.7-12.3-7.4-18.7-5.1c-4.2,1.5-7,5.3-8.9,9.5l0,0
		c-1,2.3-1.8,4.8-2.3,7.1c-0.8,3.5-1.2,6.6-1.4,8c-0.5,4.5-0.3,7.8,1.3,12.6c0,0.1,0.1,0.2,0.1,0.4c-0.6-0.1-1.1-0.2-1.7-0.2
		c0,0,0,0,0,0c-1.8-0.2-3.7-0.1-5.4,0.2c-1.6,0.3-3.2,0.9-4.6,1.9c-4,2.7-5.8,7.6-6.4,12.6c-0.3,1.9-0.3,3.8-0.3,5.5
		c-2.5-0.4-5.2-0.4-8.4-0.1c2.4,4.3,5,8.5,7.9,12.6c0.9,1.2,1.8,2.4,2.7,3.6c0.4,0.5,0.7,1,1.1,1.4c2.7,3.4,5.6,6.7,8.8,9.9
		c0.3,0.3,0.5,0.5,0.8,0.7l0,0c0.5,0.6,1.1,1.1,1.6,1.6c2.9,2.8,5.9,5.3,9,7.6c0.4,0.4,0.9,0.7,1.4,1c0.9,0.7,1.9,1.4,2.8,2
		c0.2,0.2,0.5,0.3,0.7,0.5v715.1h3210V491.3h-106.2C2998.3,473,2999.1,453,3001,431.3z M518.4,472.6c0.2-0.7,0.4-1.5,0.6-2.2
		c0.9,0.7,1.8,1.3,2.6,1.7c-0.7,3.1-1.8,6.3-3.3,10.4c-0.7,1.9-1.4,4-2.3,5.7c-0.1-2.3-0.5-5-1.3-7.9
		C516.1,478,517.5,475.4,518.4,472.6z M493,474.2c-0.3,0.9-0.6,1.4-0.8,1.3c-0.3,0-0.4-1.1-0.5-3.7
		C492.1,472.6,492.5,473.4,493,474.2z M2923.9,481.2c1.7-0.8,3.5-1.4,3.5-1.4c5.5-1.7,10.1-1.1,11.6-1c7.8,0.6,20.1-3.9,23.8-11.7
		c0.1-0.3,0.3-0.6,0.4-0.9c0.7,8.4,1.5,16.8,2.6,25.1h-54.5C2915.5,487.2,2919.6,483.2,2923.9,481.2z M2514.1,488.4
		c0.6-0.6,1.3-1.2,1.9-1.8c5.8-0.3,11.9-0.7,18.2-1c-1.2,0.5-2.5,1-3.8,1.6c-0.7,0.3-1.5,0.7-2.2,1c-1.5,0.7-2.9,1.5-4.3,2.3
		c-0.4,0.3-0.8,0.5-1.2,0.8h-12.5c0.6-0.3,1.2-0.7,1.8-1.2C2512.8,489.6,2513.5,489.1,2514.1,488.4z M2506.2,487.1
		c0,0.3,0,0.6,0,0.9c-0.2-0.3-0.4-0.6-0.6-0.9C2505.8,487.2,2506,487.1,2506.2,487.1z M2504.4,487.2c0.1,0.1,0.2,0.3,0.3,0.4
		c0.8,1.1,1.6,2.4,2.2,3.7h-3.6c0.1-0.2,0.1-0.5,0-0.7c-0.2-1.1-1.5-2.1-3.5-3.1C2501.4,487.4,2502.9,487.3,2504.4,487.2z
		 M2405.3,490.8c2.3-1,4.5-2.3,6.8-4.3c0.9-0.8,1.8-1.7,2.8-2.7c0.2-0.3,0.7-0.7,1.2-1.3c0.1,2.8,0.4,5.5,0.9,8.1
		c7.9,0.2,19.5,0,36.9-0.8c0.9,0.4,1.9,0.9,3.1,1.4h-51.9C2405.2,491.1,2405.3,491,2405.3,490.8z M2138,482.8
		c-0.3,0.9-0.6,1.4-0.8,1.3c-0.3,0-0.4-1.1-0.5-3.7C2137.1,481.3,2137.6,482,2138,482.8z M2159.8,489c1.4-2.3,2.8-4.9,3.7-7.7
		c0.2-0.7,0.4-1.5,0.6-2.2c0.9,0.7,1.8,1.3,2.6,1.7c-0.7,3.1-1.8,6.3-3.3,10.4c0,0,0,0.1,0,0.1h-3
		C2160.2,490.5,2160,489.8,2159.8,489z M1278.8,472.5c1.7-0.8,3.5-1.4,3.5-1.4c5.5-1.7,10.1-1.1,11.6-1c7.8,0.6,20.1-3.9,23.8-11.7
		c0.1-0.3,0.3-0.6,0.4-0.9c0.9,11.4,2.2,22.7,3.8,33.7h-65.5C1264,486,1271.3,476.1,1278.8,472.5z M867,481.5c0.7-0.5,1.3-1.1,2-1.7
		c0.6-0.6,1.3-1.2,1.9-1.8c5.8-0.3,11.9-0.7,18.2-1c-1.2,0.5-2.5,1-3.8,1.6c-0.7,0.3-1.5,0.7-2.2,1c-1.5,0.7-2.9,1.5-4.3,2.3
		c-1,0.6-1.9,1.2-2.8,1.8c-0.6,0.5-1.3,0.9-1.9,1.4c-0.3,0.2-0.6,0.4-0.8,0.7l0,0c-1.3,1.1-2.5,2.3-3.6,3.5c-0.6,0.7-1.2,1.4-1.8,2
		h-2.2c-0.6-2.7-1.4-5.2-2.4-7.5c-0.1-0.2-0.1-0.3-0.2-0.5C864.3,483.2,865.6,482.6,867,481.5z M861.1,478.5c0,0.3,0,0.6,0,0.9
		c-0.2-0.3-0.4-0.6-0.6-0.9C860.7,478.5,860.9,478.5,861.1,478.5z M756.3,489.8c1.7-2.3,3.2-4.9,4-7.6c2.3-1,4.5-2.3,6.8-4.3
		c0.9-0.8,1.8-1.7,2.8-2.7c0.2-0.3,0.7-0.7,1.2-1.3c0.1,2.8,0.4,5.5,0.9,8.1c7.9,0.2,19.5,0,36.9-0.8c4.8,2.3,14.8,6.6,23.6,7.8
		c13.5,1.9,26.4-3.3,25.8-7.1c-0.2-1.1-1.5-2.1-3.5-3.1c1.5-0.1,3-0.2,4.5-0.3c0.1,0.1,0.2,0.3,0.3,0.4c1,1.4,1.9,2.9,2.6,4.5
		c1.1,2.4,2,5,2.6,7.8H763.3c0.6-0.1,1.3-0.1,1.9-0.2C762.4,490.2,759.5,489.9,756.3,489.8z"/>
	<path class="st4" d="M1618.5,391.2c3.1,0,5.5-2.5,5.5-5.5s-2.5-5.5-5.5-5.5c-3.1,0-5.5,2.5-5.5,5.5S1615.5,391.2,1618.5,391.2z"/>
	<path class="st4" d="M2103.9,253.3c4.3,0,7.7-3.5,7.7-7.7s-3.5-7.7-7.7-7.7s-7.7,3.5-7.7,7.7S2099.6,253.3,2103.9,253.3z"/>
	<path class="st4" d="M1676.8,64.2c3.8,0,6.9-3.1,6.9-6.9s-3.1-6.9-6.9-6.9s-6.9,3.1-6.9,6.9S1672.9,64.2,1676.8,64.2z"/>
	<path class="st4" d="M1930.8,264.6c3.8,0,6.9-3.1,6.9-6.9c0-3.8-3.1-6.9-6.9-6.9c-3.8,0-6.9,3.1-6.9,6.9
		C1923.9,261.5,1927,264.6,1930.8,264.6z"/>
	<circle class="st4" cx="2780.4" cy="406.6" r="6.9"/>
	<path class="st4" d="M2955,203.1c1.6,0,3-1.3,3-3s-1.3-3-3-3c-1.6,0-3,1.3-3,3S2953.4,203.1,2955,203.1z"/>
	<path class="st4" d="M2685.1,56.2c3.8,0,6.9-3.1,6.9-6.9s-3.1-6.9-6.9-6.9c-3.8,0-6.9,3.1-6.9,6.9S2681.2,56.2,2685.1,56.2z"/>
	<path class="st4" d="M1830.6,353c0,2.7,2.2,5,5,5c2.7,0,5-2.2,5-5c0-2.7-2.2-5-5-5C1832.8,348,1830.6,350.2,1830.6,353z"/>
	<circle class="st4" cx="2817.1" cy="288.5" r="6"/>
</g>
</svg>
